<svg width="30" height="30" viewBox="0 0 30 30" fill="none" xmlns="http://www.w3.org/2000/svg">
<path d="M6.22865 8.99637C7.73915 8.99637 8.96365 7.77187 8.96365 6.26137C8.96365 4.75087 7.73915 3.52637 6.22865 3.52637C4.71815 3.52637 3.49365 4.75087 3.49365 6.26137C3.49365 7.77187 4.71815 8.99637 6.22865 8.99637Z" fill="#455A64"/>
<path d="M11.5462 11.0688V26.2426H16.2574V18.7388C16.2574 16.7588 16.6299 14.8413 19.0849 14.8413C21.5061 14.8413 21.5361 17.1051 21.5361 18.8638V26.2438H26.2499V17.9226C26.2499 13.8351 25.3699 10.6938 20.5924 10.6938C18.2987 10.6938 16.7612 11.9526 16.1324 13.1438H16.0687V11.0688H11.5462ZM3.86865 11.0688H8.5874V26.2426H3.86865V11.0688Z" fill="#455A64"/>
</svg>
