<svg width="30" height="30" viewBox="0 0 30 30" fill="none" xmlns="http://www.w3.org/2000/svg">
<path d="M26.1836 10.3813C26.171 9.4346 25.9938 8.49729 25.6598 7.61132C25.3703 6.86401 24.928 6.18532 24.3613 5.61861C23.7946 5.0519 23.1159 4.60963 22.3686 4.32007C21.494 3.99176 20.5701 3.81424 19.6361 3.79507C18.4336 3.74132 18.0523 3.72632 14.9998 3.72632C11.9473 3.72632 11.5561 3.72632 10.3623 3.79507C9.42879 3.81439 8.50528 3.9919 7.63109 4.32007C6.88367 4.60943 6.20487 5.05162 5.63813 5.61836C5.0714 6.18509 4.6292 6.86389 4.33984 7.61132C4.01088 8.48523 3.83375 9.40896 3.81609 10.3426C3.76234 11.5463 3.74609 11.9276 3.74609 14.9801C3.74609 18.0326 3.74609 18.4226 3.81609 19.6176C3.83484 20.5526 4.01109 21.4751 4.33984 22.3513C4.62969 23.0985 5.07221 23.777 5.63914 24.3435C6.20606 24.91 6.88492 25.352 7.63234 25.6413C8.50413 25.9828 9.42781 26.173 10.3636 26.2038C11.5673 26.2576 11.9486 26.2738 15.0011 26.2738C18.0536 26.2738 18.4448 26.2738 19.6386 26.2038C20.5725 26.1854 21.4965 26.0083 22.3711 25.6801C23.1182 25.3902 23.7967 24.9478 24.3634 24.3811C24.9301 23.8145 25.3724 23.1359 25.6623 22.3888C25.9911 21.5138 26.1673 20.5913 26.1861 19.6551C26.2398 18.4526 26.2561 18.0713 26.2561 15.0176C26.2536 11.9651 26.2536 11.5776 26.1836 10.3813ZM14.9923 20.7526C11.7998 20.7526 9.21359 18.1663 9.21359 14.9738C9.21359 11.7813 11.7998 9.19507 14.9923 9.19507C16.525 9.19507 17.9948 9.8039 19.0785 10.8876C20.1623 11.9714 20.7711 13.4412 20.7711 14.9738C20.7711 16.5064 20.1623 17.9763 19.0785 19.06C17.9948 20.1437 16.525 20.7526 14.9923 20.7526ZM21.0011 10.3288C20.2548 10.3288 19.6536 9.72632 19.6536 8.98132C19.6536 8.80444 19.6884 8.6293 19.7561 8.46589C19.8238 8.30248 19.923 8.154 20.0481 8.02893C20.1732 7.90386 20.3216 7.80465 20.485 7.73697C20.6484 7.66928 20.8236 7.63444 21.0005 7.63444C21.1773 7.63444 21.3525 7.66928 21.5159 7.73697C21.6793 7.80465 21.8278 7.90386 21.9529 8.02893C22.0779 8.154 22.1771 8.30248 22.2448 8.46589C22.3125 8.6293 22.3473 8.80444 22.3473 8.98132C22.3473 9.72632 21.7448 10.3288 21.0011 10.3288Z" fill="#455A64"/>
<path d="M14.9925 18.7275C17.0657 18.7275 18.7463 17.0469 18.7463 14.9737C18.7463 12.9006 17.0657 11.22 14.9925 11.22C12.9194 11.22 11.2388 12.9006 11.2388 14.9737C11.2388 17.0469 12.9194 18.7275 14.9925 18.7275Z" fill="#455A64"/>
</svg>
