<svg width="62" height="62" viewBox="0 0 62 62" fill="none" xmlns="http://www.w3.org/2000/svg">
<path fill-rule="evenodd" clip-rule="evenodd" d="M30.9881 6.90234C27.7764 6.90234 25.1729 9.50591 25.1729 12.7176V19.7802H36.8033V12.7176C36.8033 9.50591 34.1997 6.90234 30.9881 6.90234ZM30.9881 9.33725C29.2808 9.33725 27.8968 10.7212 27.8968 12.4285V16.0345H34.0793V12.4285C34.0793 10.7212 32.6953 9.33725 30.9881 9.33725Z" fill="#FF5C58"/>
<path d="M12.0378 37.6175C12.1713 36.3381 13.2498 35.3663 14.5361 35.3663C15.9234 35.3663 17.048 36.4909 17.048 37.8781V43.9778C17.048 45.5404 15.7813 46.8071 14.2188 46.8071C12.54 46.8071 11.2305 45.3539 11.4047 43.6842L12.0378 37.6175Z" fill="white"/>
<path fill-rule="evenodd" clip-rule="evenodd" d="M18.0169 37.8781V43.9778C18.0169 46.0755 16.3164 47.7759 14.2189 47.7759C11.9654 47.7759 10.2075 45.825 10.4413 43.5837L11.0744 37.5169C11.2594 35.7441 12.7538 34.3975 14.5362 34.3975C16.4586 34.3975 18.0169 35.9559 18.0169 37.8781ZM14.5362 35.3663C13.2499 35.3663 12.1714 36.3381 12.0379 37.6175L11.4048 43.6842C11.2306 45.3539 12.5401 46.8071 14.2189 46.8071C15.7814 46.8071 17.0481 45.5404 17.0481 43.9778V37.8781C17.0481 36.4909 15.9235 35.3663 14.5362 35.3663Z" fill="#FF5C58"/>
<path d="M49.9618 37.6175C49.8285 36.3381 48.7498 35.3663 47.4635 35.3663C46.0763 35.3663 44.9517 36.4909 44.9517 37.8781V43.9778C44.9517 45.5404 46.2184 46.8071 47.7809 46.8071C49.4595 46.8071 50.7692 45.3539 50.5948 43.6842L49.9618 37.6175Z" fill="white"/>
<path fill-rule="evenodd" clip-rule="evenodd" d="M43.9829 37.8781V43.9778C43.9829 46.0755 45.6834 47.7759 47.7809 47.7759C50.0344 47.7759 51.7922 45.825 51.5582 43.5837L50.9252 37.5169C50.7406 35.7441 49.2458 34.3975 47.4635 34.3975C45.5412 34.3975 43.9829 35.9559 43.9829 37.8781ZM47.4635 35.3663C48.7498 35.3663 49.8285 36.3381 49.9617 37.6175L50.5948 43.6842C50.7692 45.3539 49.4594 46.8071 47.7809 46.8071C46.2184 46.8071 44.9517 45.5404 44.9517 43.9778V37.8781C44.9517 36.4909 46.0763 35.3663 47.4635 35.3663Z" fill="#FF5C58"/>
<path d="M15.8938 25.4095C16.4838 18.3839 22.3584 12.9821 29.4086 12.9821H32.654C39.7043 12.9821 45.5788 18.3839 46.1689 25.4095L47.8689 45.6493C48.2959 50.7344 44.2838 55.0977 39.1807 55.0977H22.882C17.7789 55.0977 13.7667 50.7344 14.1938 45.6492L15.8938 25.4095Z" fill="white"/>
<path fill-rule="evenodd" clip-rule="evenodd" d="M29.4087 12.0133H32.654C40.208 12.0133 46.5021 17.801 47.1343 25.3284L48.8341 45.5682C49.3087 51.2183 44.8508 56.0664 39.1807 56.0664H22.882C17.2119 56.0664 12.7539 51.2183 13.2285 45.5681L14.9284 25.3284C15.5606 17.801 21.8548 12.0133 29.4087 12.0133ZM29.4087 12.9821C22.3584 12.9821 16.4839 18.3839 15.8938 25.4095L14.1939 45.6492C13.7668 50.7344 17.7789 55.0977 22.882 55.0977H39.1807C44.2838 55.0977 48.296 50.7344 47.8689 45.6493L46.1689 25.4095C45.5789 18.3839 39.7044 12.9821 32.654 12.9821H29.4087Z" fill="#FF5C58"/>
<path d="M24.5811 22.2466C24.5811 21.1766 25.4485 20.3091 26.5186 20.3091H35.5452C36.6152 20.3091 37.4827 21.1766 37.4827 22.2466V24.1825C37.4827 25.2526 36.6152 26.12 35.5452 26.12H26.5186C25.4485 26.12 24.5811 25.2526 24.5811 24.1825V22.2466Z" fill="#FF5C58"/>
<path d="M21.332 49.9531C22.2157 51.1306 23.6231 51.8921 25.2083 51.8921H40.2817C42.9568 51.8921 45.1255 49.7235 45.1255 47.0483V41.2602C45.1255 39.675 44.3639 38.2676 43.1867 37.384C43.2973 37.7441 43.3568 38.1265 43.3568 38.5228V46.2484C43.3568 48.3885 41.6219 50.1236 39.4818 50.1236H22.4709C22.0746 50.1236 21.6922 50.064 21.332 49.9531Z" fill="#FF5C58"/>
<path fill-rule="evenodd" clip-rule="evenodd" d="M22.4707 33.6791H39.4816C42.1567 33.6791 44.3254 35.8477 44.3254 38.5228V46.2484C44.3254 48.9233 42.1567 51.0924 39.4816 51.0924H22.4707C19.7956 51.0924 17.627 48.9233 17.627 46.2484V38.5228C17.627 35.8477 19.7956 33.6791 22.4707 33.6791ZM22.4707 34.6478C20.3306 34.6478 18.5957 36.3827 18.5957 38.5228V46.2484C18.5957 48.3885 20.3306 50.1236 22.4707 50.1236H39.4816C41.6217 50.1236 43.3566 48.3885 43.3566 46.2484V38.5228C43.3566 36.3827 41.6217 34.6478 39.4816 34.6478H22.4707Z" fill="#FF5C58"/>
<path fill-rule="evenodd" clip-rule="evenodd" d="M18.0562 40.5616C18.0562 40.2941 18.273 40.0773 18.5405 40.0773H43.5225C43.79 40.0773 44.0069 40.2941 44.0069 40.5616C44.0069 40.8292 43.79 41.046 43.5225 41.046H18.5405C18.273 41.046 18.0562 40.8292 18.0562 40.5616Z" fill="#FF5C58"/>
<path d="M36.4844 39.6367C36.5392 39.2712 36.8954 38.9979 37.317 38.9979H37.4704C37.892 38.9979 38.2482 39.2712 38.303 39.6367L38.832 43.1632C38.9459 43.9227 38.2698 44.5964 37.3937 44.5964C36.5176 44.5964 35.8415 43.9227 35.9554 43.1632L36.4844 39.6367Z" fill="#FF5C58"/>
</svg>
