<svg width="84" height="84" viewBox="0 0 84 84" fill="none" xmlns="http://www.w3.org/2000/svg">
<path fill-rule="evenodd" clip-rule="evenodd" d="M42.0205 58.0225C42.7454 58.0225 43.333 58.6101 43.333 59.335V70.7857C43.333 71.5109 42.7454 72.0982 42.0205 72.0982C41.2957 72.0982 40.708 71.5109 40.708 70.7857V59.335C40.708 58.6101 41.2957 58.0225 42.0205 58.0225Z" fill="#F84663"/>
<path fill-rule="evenodd" clip-rule="evenodd" d="M42.8341 10.6054C42.9227 11.3248 42.4112 11.9798 41.6918 12.0684C39.7417 12.3086 37.7893 12.8055 35.8783 13.5792C24.1438 18.3292 18.4818 31.6925 23.2318 43.4269C27.9818 55.1614 41.3451 60.8234 53.0795 56.0734C55.175 55.2251 57.0749 54.1035 58.7561 52.7668C59.3235 52.3157 60.1491 52.41 60.6002 52.9774C61.0513 53.5448 60.9571 54.3704 60.3897 54.8216C58.5137 56.3131 56.3956 57.563 54.0645 58.5066C40.9862 63.8006 26.0925 57.4901 20.7986 44.4119C15.5046 31.3336 21.815 16.4399 34.8933 11.146C37.0192 10.2854 39.195 9.73108 41.371 9.46313C42.0904 9.37454 42.7455 9.88595 42.8341 10.6054Z" fill="#F84663"/>
<path fill-rule="evenodd" clip-rule="evenodd" d="M33.4526 10.0816C34.0993 9.75403 34.889 10.0127 35.2165 10.6593L58.6777 56.9762C59.0052 57.6229 58.7465 58.4126 58.0999 58.7401C57.4532 59.0677 56.6635 58.809 56.336 58.1624L32.8748 11.8455C32.5473 11.1988 32.806 10.4091 33.4526 10.0816Z" fill="#F84663"/>
<path d="M63.7618 35.3466C63.7618 46.0446 55.0892 54.7172 44.3911 54.7172C33.693 54.7172 25.0205 46.0446 25.0205 35.3466C25.0205 24.6484 33.693 15.9759 44.3911 15.9759C55.0892 15.9759 63.7618 24.6484 63.7618 35.3466Z" fill="white"/>
<path fill-rule="evenodd" clip-rule="evenodd" d="M65.0743 35.3466C65.0743 46.7695 55.8141 56.0297 44.3911 56.0297C32.9682 56.0297 23.708 46.7695 23.708 35.3466C23.708 23.9235 32.9682 14.6634 44.3911 14.6634C55.8141 14.6634 65.0743 23.9235 65.0743 35.3466ZM44.3911 54.7172C55.0892 54.7172 63.7618 46.0446 63.7618 35.3466C63.7618 24.6484 55.0892 15.9759 44.3911 15.9759C33.693 15.9759 25.0205 24.6484 25.0205 35.3466C25.0205 46.0446 33.693 54.7172 44.3911 54.7172Z" fill="#F84663"/>
<path fill-rule="evenodd" clip-rule="evenodd" d="M38.2492 23.5875C38.4391 23.3724 38.7467 23.3055 39.0087 23.4224L44.4614 25.8551C44.4702 25.8591 44.4789 25.8632 44.4875 25.8675L47.3396 27.2936C47.6254 27.4364 47.7666 27.7642 47.6744 28.07L46.0806 33.3549C45.997 33.632 45.7417 33.8217 45.4523 33.8217H42.5403L42.7717 35.1637L45.7518 36.6919C45.9318 36.7843 46.0593 36.9546 46.097 37.1535C46.1348 37.3523 46.0786 37.5574 45.945 37.7094L42.4175 41.7179V44.0707C42.4175 44.2618 42.3343 44.4433 42.1895 44.568L39.1696 47.1685C38.9394 47.3667 38.6034 47.381 38.3571 47.2032L35.3579 45.0371L31.9404 42.9533C31.8009 42.8682 31.6981 42.7341 31.6522 42.5773L30.6455 39.138C30.6003 38.9833 30.6135 38.8175 30.6826 38.672L32.1503 35.5823L30.6708 32.0785C30.5949 31.8985 30.6029 31.6941 30.693 31.5208L32.9579 27.1587C32.9718 27.132 32.9874 27.1063 33.0048 27.0818L34.4309 25.0685C34.554 24.8948 34.7536 24.7915 34.9664 24.7915H37.1869L38.2492 23.5875ZM38.9144 24.8175L37.9751 25.882C37.8505 26.0232 37.6714 26.104 37.483 26.104H35.3058L34.1019 27.8036L31.9999 31.852L33.4738 35.3429C33.5466 35.5153 33.5424 35.7106 33.462 35.8797L31.9755 39.0093L32.8405 41.9649L36.0631 43.9298C36.0776 43.9387 36.0918 43.9481 36.1056 43.9581L38.7057 45.8359L41.1051 43.7698V41.4702C41.1051 41.3106 41.1632 41.1565 41.2686 41.0367L44.4028 37.4751L41.8813 36.1821C41.6976 36.0879 41.569 35.9129 41.534 35.7096L41.1146 33.2769C41.0817 33.0861 41.1346 32.8906 41.2593 32.7426C41.384 32.5946 41.5677 32.5092 41.7613 32.5092H44.9648L46.2583 28.2202L43.9134 27.0479L38.9144 24.8175Z" fill="#F84663"/>
<path fill-rule="evenodd" clip-rule="evenodd" d="M59.3512 31.3498C59.5525 31.4674 59.6762 31.6831 59.6762 31.9163V36.5571C59.6762 36.6513 59.6559 36.7443 59.6167 36.8299L58.0619 40.2311V43.5184C58.0619 43.767 57.9215 43.9942 57.6992 44.1054L53.0583 46.4258C52.8748 46.5176 52.659 46.5182 52.4749 46.4276C52.2909 46.337 52.1598 46.1655 52.1206 45.9641L51.4144 42.3321C51.3906 42.2095 51.4022 42.0826 51.448 41.9663L52.6895 38.8148L52.1205 35.8747C52.091 35.7224 52.1164 35.5647 52.1922 35.4294L53.6047 32.9071C53.7066 32.7251 53.8889 32.6025 54.0959 32.5766L57.1963 32.1891L58.6982 31.3443C58.9013 31.2299 59.1499 31.232 59.3512 31.3498ZM58.3637 33.0383L57.7274 33.3962C57.6532 33.438 57.5716 33.4649 57.4871 33.4754L54.5877 33.8378L53.4547 35.8611L54.0144 38.7529C54.0381 38.8753 54.0265 39.002 53.9807 39.1181L52.7393 42.2694L53.2441 44.8655L56.7494 43.1129V40.0882C56.7494 39.994 56.7697 39.901 56.8088 39.8154L58.3637 36.4143V33.0383Z" fill="#F84663"/>
<path d="M41.8303 66.7406C35.6443 66.7406 30.6294 69.2311 30.6294 72.303H53.0313C53.0313 69.2311 48.0165 66.7406 41.8303 66.7406Z" fill="white"/>
<path fill-rule="evenodd" clip-rule="evenodd" d="M30.6294 73.6155C29.9045 73.6155 29.3169 73.0282 29.3169 72.303C29.3169 69.9976 31.1632 68.2684 33.3263 67.1941C35.5705 66.0798 38.5789 65.4283 41.8303 65.4283C45.0818 65.4283 48.0902 66.0798 50.3344 67.1941C52.4975 68.2684 54.3438 69.9976 54.3438 72.303C54.3438 73.0282 53.7562 73.6155 53.0313 73.6155H30.6294ZM52.7177 70.9905C51.5298 68.5519 47.1061 66.7406 41.8303 66.7406C36.5547 66.7406 32.1309 68.5519 30.943 70.9905C30.738 71.4118 30.6294 71.8508 30.6294 72.303H53.0313C53.0313 71.8508 52.9227 71.4118 52.7177 70.9905Z" fill="#F84663"/>
<path d="M27.543 73.5879C27.543 73.2408 27.8244 72.9593 28.1716 72.9593H55.8693C56.2164 72.9593 56.4979 73.2408 56.4979 73.5879C56.4979 73.9351 56.2164 74.2166 55.8693 74.2166H28.1716C27.8244 74.2166 27.543 73.9351 27.543 73.5879Z" fill="#F84663"/>
<path fill-rule="evenodd" clip-rule="evenodd" d="M55.8693 74.2166C56.2164 74.2166 56.4979 73.9351 56.4979 73.5879C56.4979 73.2408 56.2164 72.9593 55.8693 72.9593H28.1716C27.8244 72.9593 27.543 73.2408 27.543 73.5879C27.543 73.9351 27.8244 74.2166 28.1716 74.2166H55.8693ZM28.1716 71.6468H55.8693C56.9413 71.6468 57.8104 72.5163 57.8104 73.5879C57.8104 74.6603 56.9413 75.5291 55.8693 75.5291H28.1716C27.0995 75.5291 26.2305 74.6603 26.2305 73.5879C26.2305 72.5163 27.0995 71.6468 28.1716 71.6468Z" fill="#F84663"/>
</svg>
