<svg width="88" height="88" viewBox="0 0 88 88" fill="none" xmlns="http://www.w3.org/2000/svg">
<path d="M23.3434 61.4701C23.3434 60.2057 22.3184 59.1807 21.054 59.1807C19.7896 59.1807 18.7646 60.2057 18.7646 61.4701V65.4464C18.7646 66.7108 19.7896 67.7358 21.054 67.7358C22.3184 67.7358 23.3434 66.7108 23.3434 65.4464V61.4701Z" fill="#F84663"/>
<path d="M68.7692 61.4701C68.7692 60.2057 67.7442 59.1807 66.4798 59.1807C65.2154 59.1807 64.1904 60.2057 64.1904 61.4701V65.4464C64.1904 66.7108 65.2154 67.7358 66.4798 67.7358C67.7442 67.7358 68.7692 66.7108 68.7692 65.4464V61.4701Z" fill="#F84663"/>
<path d="M73.4731 19.7897H14.5269C11.1096 19.7897 8.33936 22.5599 8.33936 25.9772V58.3548C8.33936 61.772 11.1096 64.5423 14.5269 64.5423H73.4731C76.8904 64.5423 79.6606 61.772 79.6606 58.3548V25.9772C79.6606 22.5599 76.8904 19.7897 73.4731 19.7897Z" fill="white" stroke="#F84663" stroke-linecap="round" stroke-linejoin="round"/>
<path d="M72.7742 22.4141H15.0581C12.7799 22.4141 10.9331 24.2609 10.9331 26.5391V58.1797C10.9331 60.4578 12.7799 62.3047 15.0581 62.3047H72.7742C75.0524 62.3047 76.8992 60.4578 76.8992 58.1797V26.5391C76.8992 24.2609 75.0524 22.4141 72.7742 22.4141Z" stroke="#F84663" stroke-linecap="round" stroke-linejoin="round"/>
<path d="M27.0406 49.6369C29.3032 49.6369 31.1374 47.8027 31.1374 45.5401C31.1374 43.2775 29.3032 41.4434 27.0406 41.4434C24.778 41.4434 22.9438 43.2775 22.9438 45.5401C22.9438 47.8027 24.778 49.6369 27.0406 49.6369Z" fill="white" stroke="#F84663" stroke-width="2"/>
<path d="M27.0405 41.2626V22.5259" stroke="#F84663" stroke-width="2" stroke-linecap="round" stroke-linejoin="round"/>
<path d="M35.9571 49.6369C38.2197 49.6369 40.0539 47.8027 40.0539 45.5401C40.0539 43.2775 38.2197 41.4434 35.9571 41.4434C33.6945 41.4434 31.8604 43.2775 31.8604 45.5401C31.8604 47.8027 33.6945 49.6369 35.9571 49.6369Z" fill="white" stroke="#F84663" stroke-width="2"/>
<path d="M35.957 41.2626V22.5259" stroke="#F84663" stroke-width="2" stroke-linecap="round" stroke-linejoin="round"/>
<path d="M44.8736 49.6369C47.1362 49.6369 48.9704 47.8027 48.9704 45.5401C48.9704 43.2775 47.1362 41.4434 44.8736 41.4434C42.611 41.4434 40.7769 43.2775 40.7769 45.5401C40.7769 47.8027 42.611 49.6369 44.8736 49.6369Z" fill="white" stroke="#F84663" stroke-width="2"/>
<path d="M44.8735 41.2626V22.5259" stroke="#F84663" stroke-width="2" stroke-linecap="round" stroke-linejoin="round"/>
<path d="M67.3753 46.9691C69.6645 45.6475 70.4488 42.7203 69.1272 40.4312C67.8055 38.142 64.8784 37.3577 62.5892 38.6793C60.3001 40.001 59.5157 42.9281 60.8374 45.2173C62.159 47.5064 65.0862 48.2908 67.3753 46.9691Z" fill="#F84663"/>
<path d="M63.1281 38.6405L53.7598 22.4141" stroke="#F84663" stroke-width="2" stroke-linecap="round" stroke-linejoin="round"/>
</svg>
