<svg width="94" height="94" viewBox="0 0 94 94" fill="none" xmlns="http://www.w3.org/2000/svg">
<path d="M70.3432 47.5701C70.3432 60.462 59.8922 70.9131 47.0002 70.9131C34.1083 70.9131 23.6572 60.462 23.6572 47.5701C23.6572 34.6781 34.1083 24.2271 47.0002 24.2271C59.8922 24.2271 70.3432 34.6781 70.3432 47.5701Z" fill="white"/>
<path fill-rule="evenodd" clip-rule="evenodd" d="M71.812 47.5701C71.812 61.2732 60.7034 72.3818 47.0002 72.3818C33.2971 72.3818 22.1885 61.2732 22.1885 47.5701C22.1885 33.867 33.2971 22.7584 47.0002 22.7584C60.7034 22.7584 71.812 33.867 71.812 47.5701ZM47.0002 70.9131C59.8922 70.9131 70.3432 60.4621 70.3432 47.5701C70.3432 34.6781 59.8922 24.2271 47.0002 24.2271C34.1083 24.2271 23.6572 34.6781 23.6572 47.5701C23.6572 60.4621 34.1083 70.9131 47.0002 70.9131Z" fill="#F84663"/>
<path fill-rule="evenodd" clip-rule="evenodd" d="M44.0622 69.4446C56.9542 69.4446 67.4051 58.9935 67.4051 46.1016C67.4051 37.5422 62.7983 30.0588 55.9289 25.9956C64.3907 29.5015 70.343 37.8407 70.343 47.57C70.343 60.4621 59.8919 70.913 47 70.913C42.6674 70.913 38.6105 69.7327 35.1333 67.676C37.8838 68.8156 40.8995 69.4446 44.0622 69.4446Z" fill="#F84663"/>
<path fill-rule="evenodd" clip-rule="evenodd" d="M19.8376 31.5987C22.1896 39.1995 27.0908 48.2934 33.9458 57.1286C40.8007 65.9637 48.3918 72.9706 55.17 77.1373C58.5541 79.2178 61.8048 80.6329 64.709 81.1741C67.6114 81.7146 70.3442 81.4062 72.4361 79.7832C74.5282 78.1603 75.5049 75.59 75.7025 72.6442C75.9008 69.6966 75.3375 66.1962 74.1625 62.4012C71.8107 54.8005 66.9095 45.7065 60.0546 36.8714C53.1996 28.0363 45.6085 21.0293 38.8304 16.8626C35.4463 14.7822 32.1955 13.3669 29.2913 12.8261C26.3889 12.2856 23.6562 12.5935 21.5643 14.2165C19.4724 15.8396 18.4953 18.4102 18.2976 21.3558C18.1 24.3034 18.6632 27.8037 19.8376 31.5987ZM35.1062 56.2282C21.5556 38.7633 15.8958 20.4736 22.4646 15.377C29.0335 10.2804 45.3435 20.3069 58.8941 37.7718C72.4447 55.2366 78.1046 73.5264 71.5357 78.6229C64.9669 83.7195 48.6569 73.6931 35.1062 56.2282Z" fill="#F84663"/>
<path fill-rule="evenodd" clip-rule="evenodd" d="M77.5245 38.3259C73.5016 45.3164 66.6527 53.1724 57.97 60.322C49.2873 67.4717 40.2631 72.6861 32.6306 75.2925C28.8225 76.5939 25.2454 77.2849 22.1714 77.1681C19.1005 77.0514 16.2654 76.1062 14.4015 73.8429C12.5375 71.5793 12.1541 68.6155 12.6288 65.5792C13.104 62.5401 14.4688 59.162 16.4759 55.6742C20.4988 48.6836 27.3478 40.8276 36.0304 33.678C44.7132 26.5284 53.7373 21.3139 61.3698 18.7071C65.1779 17.4065 68.7551 16.7151 71.8289 16.8319C74.8999 16.9486 77.7353 17.8936 79.5991 20.1571C81.463 22.4208 81.8463 25.3845 81.3719 28.4208C80.8968 31.46 79.5316 34.838 77.5245 38.3259ZM56.5696 58.6213C73.6338 44.5698 83.1829 27.9759 77.8983 21.5576C72.6132 15.1394 54.4954 21.3273 37.4309 35.3787C20.3663 49.4302 10.8172 66.0241 16.1022 72.4424C21.3872 78.8609 39.505 72.6727 56.5696 58.6213Z" fill="#F84663"/>
<path d="M81.9568 31.5732C81.9568 33.1216 80.701 34.3768 79.153 34.3768C77.6049 34.3768 76.3491 33.1216 76.3491 31.5732C76.3491 30.0248 77.6049 28.7695 79.153 28.7695C80.701 28.7695 81.9568 30.0248 81.9568 31.5732Z" fill="#F84663"/>
<path d="M40.809 34.3767C40.809 35.9252 39.5537 37.1804 38.0054 37.1804C36.4569 37.1804 35.2017 35.9252 35.2017 34.3767C35.2017 32.8283 36.4569 31.5731 38.0054 31.5731C39.5537 31.5731 40.809 32.8283 40.809 34.3767Z" fill="#F84663"/>
<path d="M40.3556 71.4427C40.3556 73.8333 38.4174 75.7721 36.0264 75.7721C33.6355 75.7721 31.6973 73.8333 31.6973 71.4427C31.6973 69.0518 33.6355 67.1136 36.0264 67.1136C38.4174 67.1136 40.3556 69.0518 40.3556 71.4427Z" fill="#F84663"/>
</svg>
