<svg width="92" height="92" viewBox="0 0 92 92" fill="none" xmlns="http://www.w3.org/2000/svg">
<path d="M14.7446 19.8065C14.7446 18.3353 15.9373 17.1426 17.4086 17.1426H69.2024C70.6736 17.1426 71.8663 18.3353 71.8663 19.8065V50.9487C71.8663 52.4199 70.6736 53.6126 69.2024 53.6126H17.4086C15.9373 53.6126 14.7446 52.4199 14.7446 50.9487V19.8065Z" fill="#F84663"/>
<path d="M11.624 16.6855C11.624 15.2143 12.8166 14.0216 14.2879 14.0216H66.0817C67.553 14.0216 68.7456 15.2143 68.7456 16.6855V47.8277C68.7456 49.2989 67.553 50.4916 66.0817 50.4916H14.2879C12.8166 50.4916 11.624 49.2989 11.624 47.8277V16.6855Z" fill="white"/>
<path fill-rule="evenodd" clip-rule="evenodd" d="M14.2874 12.6897H66.0812C68.288 12.6897 70.0771 14.4787 70.0771 16.6855V47.8277C70.0771 50.0345 68.288 51.8236 66.0812 51.8236H14.2874C12.0805 51.8236 10.2915 50.0345 10.2915 47.8277V16.6855C10.2915 14.4787 12.0805 12.6897 14.2874 12.6897ZM14.2874 14.0216C12.8161 14.0216 11.6235 15.2143 11.6235 16.6855V47.8277C11.6235 49.2989 12.8161 50.4916 14.2874 50.4916H66.0812C67.5524 50.4916 68.7451 49.2989 68.7451 47.8277V16.6855C68.7451 15.2143 67.5524 14.0216 66.0812 14.0216H14.2874Z" fill="#F84663"/>
<path fill-rule="evenodd" clip-rule="evenodd" d="M22.5087 26.9606C22.9937 25.9584 24.4214 25.9584 24.9065 26.9606L25.9183 29.0513L28.0296 29.291C29.1455 29.4176 29.6133 30.7836 28.8094 31.5679L27.0389 33.295L27.4632 35.0351C27.7435 36.1846 26.4978 37.1017 25.4834 36.4925L23.7075 35.4261L21.9316 36.4925C20.9173 37.1017 19.6716 36.1846 19.9519 35.0351L20.3762 33.295L18.6057 31.5679C17.8018 30.7836 18.2696 29.4176 19.3855 29.291L21.4967 29.0513L22.5087 26.9606ZM24.7195 29.6315L23.7075 27.5409L22.6957 29.6315C22.4967 30.0427 22.1008 30.3232 21.647 30.3747L19.5358 30.6144L21.3063 32.3416C21.6435 32.6705 21.7819 33.153 21.6702 33.6106L21.246 35.3506L23.0219 34.2842C23.4438 34.0308 23.9712 34.0308 24.3933 34.2842L26.1692 35.3506L25.7448 33.6106C25.6332 33.153 25.7716 32.6705 26.1088 32.3416L27.8793 30.6144L25.7681 30.3747C25.3142 30.3232 24.9185 30.0427 24.7195 29.6315Z" fill="#F84663"/>
<path fill-rule="evenodd" clip-rule="evenodd" d="M38.6249 26.9606C39.11 25.9584 40.5376 25.9584 41.0227 26.9606L42.0346 29.0513L44.1457 29.291C45.2617 29.4176 45.7295 30.7836 44.9256 31.5679L43.1551 33.295L43.5794 35.0351C43.8597 36.1846 42.614 37.1017 41.5996 36.4925L39.8237 35.4261L38.0479 36.4925C37.0336 37.1017 35.7878 36.1846 36.0681 35.0351L36.4924 33.295L34.7219 31.5679C33.918 30.7836 34.3858 29.4176 35.5018 29.291L37.6129 29.0513L38.6249 26.9606ZM40.8357 29.6315L39.8237 27.5409L38.8118 29.6315C38.6129 30.0427 38.2171 30.3232 37.7632 30.3747L35.652 30.6144L37.4225 32.3416C37.7597 32.6705 37.8981 33.153 37.7865 33.6106L37.3622 35.3506L39.1381 34.2842C39.56 34.0308 40.0875 34.0308 40.5095 34.2842L42.2854 35.3506L41.861 33.6106C41.7494 33.153 41.8879 32.6705 42.225 32.3416L43.9955 30.6144L41.8843 30.3747C41.4304 30.3232 41.0347 30.0427 40.8357 29.6315Z" fill="#F84663"/>
<path fill-rule="evenodd" clip-rule="evenodd" d="M54.7415 26.9606C55.2266 25.9584 56.6542 25.9584 57.1393 26.9606L58.1512 29.0513L60.2624 29.291C61.3784 29.4176 61.8462 30.7836 61.0423 31.5679L59.2718 33.295L59.6961 35.0351C59.9764 36.1846 58.7306 37.1017 57.7163 36.4925L55.9404 35.4261L54.1646 36.4925C53.1502 37.1017 51.9044 36.1846 52.1848 35.0351L52.6091 33.295L50.8386 31.5679C50.0347 30.7836 50.5025 29.4176 51.6185 29.291L53.7296 29.0513L54.7415 26.9606ZM56.9524 29.6315L55.9404 27.5409L54.9285 29.6315C54.7296 30.0427 54.3338 30.3232 53.8799 30.3747L51.7687 30.6144L53.5392 32.3416C53.8763 32.6705 54.0148 33.153 53.9031 33.6106L53.4788 35.3506L55.2547 34.2842C55.6767 34.0308 56.2042 34.0308 56.6261 34.2842L58.402 35.3506L57.9777 33.6106C57.8661 33.153 58.0045 32.6705 58.3416 32.3416L60.1122 30.6144L58.001 30.3747C57.5471 30.3232 57.1513 30.0427 56.9524 29.6315Z" fill="#F84663"/>
<path d="M58.4541 76.5591V74.6285C58.4541 72.9876 59.9285 71.7509 61.5687 71.7901C66.9088 71.9174 71.0776 70.0779 73.7144 68.2173C75.1181 67.2273 77.2053 67.3008 78.2389 68.6724L79.0669 69.7717C79.8259 70.7786 79.7842 72.192 78.8808 73.0717C72.1899 79.585 64.7253 79.7568 60.3967 79.0021C59.2306 78.7987 58.4541 77.7429 58.4541 76.5591Z" fill="#F84663"/>
<path d="M54.7835 69.3217C58.9888 73.7711 64.9474 72.6585 68.3031 71.6442C75.0144 69.6156 79.135 65.0741 75.4838 52.9939C74.8031 50.7426 72.1092 49.1001 69.5094 50.7053C68.9454 51.0536 68.2186 51.0834 67.6308 50.7771C65.4265 49.6288 63.7364 50.8319 62.7959 51.8637C62.4172 52.2792 61.6453 52.2096 61.4346 51.6883L60.432 49.2074L58.9783 44.9729C58.2177 42.4562 55.7792 40.4466 53.2624 41.2073C50.7457 41.9681 50.921 45.5773 51.8797 48.7494L55.8568 60.7573L52.5796 59.0013C51.4871 58.4159 48.8494 57.5653 47.0389 58.845C45.2284 60.1246 45.283 62.1224 46.629 63.5466C47.975 64.9708 52.0914 66.4733 54.7835 69.3217Z" fill="white"/>
<path fill-rule="evenodd" clip-rule="evenodd" d="M53.2087 57.8272L53.5426 58.0061L50.6153 49.1682C50.6116 49.1571 50.6081 49.1459 50.6047 49.1347C50.101 47.468 49.7654 45.577 49.9436 43.9307C50.1235 42.2695 50.8934 40.532 52.8771 39.9323C54.5998 39.4116 56.2595 39.8611 57.5487 40.7741C58.8161 41.6717 59.7815 43.0466 60.2458 44.5626L61.6803 48.7412L62.3597 50.4225C62.8663 49.9697 63.5145 49.5211 64.2984 49.246C65.454 48.8405 66.8105 48.8479 68.2462 49.5958C68.4134 49.6829 68.6406 49.6764 68.8096 49.572C70.4963 48.5305 72.2889 48.5205 73.766 49.1904C75.202 49.8416 76.3082 51.1185 76.7581 52.6085C78.6254 58.7862 78.6031 63.3345 76.9766 66.6719C75.3328 70.0451 72.2149 71.8532 68.6885 72.9193C65.3062 73.9414 58.6041 75.3034 53.8155 70.2367C52.6065 68.9576 51.0445 67.9487 49.522 67.0457C49.2776 66.9007 49.0287 66.7553 48.7822 66.6113C48.2907 66.3242 47.8082 66.0422 47.3867 65.7788C46.7593 65.3869 46.1233 64.9506 45.661 64.4615C44.7857 63.5354 44.253 62.3373 44.3201 61.071C44.3888 59.7764 45.0753 58.6018 46.2701 57.7573C47.5483 56.8538 49.0403 56.7539 50.2413 56.9018C51.4484 57.0504 52.538 57.4679 53.2087 57.8272ZM60.432 49.2073L61.4346 51.6883C61.6452 52.2096 62.4172 52.2793 62.796 51.8637C63.7364 50.8319 65.4265 49.6287 67.6308 50.7771C68.2186 51.0834 68.9454 51.0537 69.5094 50.7054C72.1092 49.1 74.8031 50.7426 75.4838 52.9939C79.135 65.0742 75.0144 69.6156 68.3031 71.6442C64.9474 72.6584 58.9888 73.7711 54.7835 69.3218C53.2065 67.6531 51.1407 66.4464 49.4294 65.4467C48.2194 64.7398 47.1866 64.1365 46.629 63.5466C45.283 62.1224 45.2284 60.1247 47.0389 58.845C48.8494 57.5653 51.4871 58.416 52.5796 59.0013L55.8569 60.7574L51.8797 48.7494C50.9211 45.5772 50.7457 41.968 53.2624 41.2073C55.7792 40.4466 58.2177 42.4562 58.9783 44.9729L60.432 49.2073Z" fill="#F84663"/>
<path fill-rule="evenodd" clip-rule="evenodd" d="M62.7105 55.916C63.0678 55.8288 63.4281 56.0478 63.5153 56.4052L65.1631 63.1609C65.2502 63.5182 65.0312 63.8786 64.6738 63.9657C64.3165 64.0529 63.9561 63.8339 63.869 63.4766L62.2213 56.7208C62.1341 56.3635 62.3531 56.0031 62.7105 55.916Z" fill="#F84663"/>
<path fill-rule="evenodd" clip-rule="evenodd" d="M69.3532 55.1004C69.72 55.0722 70.0401 55.3466 70.0683 55.7134L70.3978 59.9975C70.4261 60.3642 70.1517 60.6844 69.785 60.7126C69.4182 60.7408 69.0981 60.4664 69.0698 60.0996L68.7403 55.8155C68.7121 55.4488 68.9865 55.1286 69.3532 55.1004Z" fill="#F84663"/>
</svg>
