<svg width="86" height="86" viewBox="0 0 86 86" fill="none" xmlns="http://www.w3.org/2000/svg">
<path d="M12.3574 25.9308C12.3574 24.0175 13.9085 22.4665 15.8218 22.4665H74.4805C76.3934 22.4665 77.9447 24.0175 77.9447 25.9308V64.3717C77.9447 66.285 76.3934 67.8359 74.4805 67.8359H15.8218C13.9085 67.8359 12.3574 66.285 12.3574 64.3717V25.9308Z" fill="#F84663"/>
<path d="M9.20996 22.7831C9.20996 20.8698 10.7611 19.3188 12.6744 19.3188H71.3329C73.2464 19.3188 74.7971 20.8698 74.7971 22.7831V61.2239C74.7971 63.1372 73.2464 64.6883 71.3329 64.6883H12.6744C10.7611 64.6883 9.20996 63.1372 9.20996 61.2239V22.7831Z" fill="white"/>
<path fill-rule="evenodd" clip-rule="evenodd" d="M12.6743 18.164H71.3329C73.884 18.164 75.952 20.232 75.952 22.7831V61.2239C75.952 63.775 73.884 65.8431 71.3329 65.8431H12.6743C10.1233 65.8431 8.05518 63.775 8.05518 61.2239V22.7831C8.05518 20.232 10.1232 18.164 12.6743 18.164ZM12.6743 19.3188C10.761 19.3188 9.20993 20.8698 9.20993 22.7831V61.2239C9.20993 63.1372 10.761 64.6883 12.6743 64.6883H71.3329C73.2464 64.6883 74.7971 63.1372 74.7971 61.2239V22.7831C74.7971 20.8698 73.2464 19.3188 71.3329 19.3188H12.6743Z" fill="#F84663"/>
<path d="M13.2744 30.0741C13.2744 28.7985 14.3085 27.7645 15.584 27.7645H42.4407C43.7163 27.7645 44.7503 28.7985 44.7503 30.0741V44.6491C44.7503 45.9247 43.7163 46.9587 42.4407 46.9587H15.584C14.3085 46.9587 13.2744 45.9247 13.2744 44.6491V30.0741Z" fill="#F84663"/>
<path fill-rule="evenodd" clip-rule="evenodd" d="M12.8257 49.8153C12.8228 49.1775 13.3375 48.6582 13.9753 48.6553L43.6806 48.5216C44.3184 48.5187 44.8377 49.0334 44.8406 49.6712C44.8434 50.3089 44.3288 50.8283 43.691 50.8311L13.9857 50.9649C13.3479 50.9677 12.8286 50.453 12.8257 49.8153Z" fill="#F84663"/>
<path fill-rule="evenodd" clip-rule="evenodd" d="M13.0098 53.1362C13.0098 52.8174 13.2683 52.5589 13.5872 52.5589H36.4072C36.7261 52.5589 36.9846 52.8174 36.9846 53.1362C36.9846 53.4552 36.7261 53.7136 36.4072 53.7136H13.5872C13.2683 53.7136 13.0098 53.4552 13.0098 53.1362Z" fill="#F84663"/>
<path fill-rule="evenodd" clip-rule="evenodd" d="M13.0098 58.8776C13.0098 58.5587 13.2683 58.3003 13.5872 58.3003H36.4072C36.7261 58.3003 36.9846 58.5587 36.9846 58.8776C36.9846 59.1965 36.7261 59.455 36.4072 59.455H13.5872C13.2683 59.455 13.0098 59.1965 13.0098 58.8776Z" fill="#F84663"/>
<path fill-rule="evenodd" clip-rule="evenodd" d="M13.0098 55.2875C13.0098 54.9686 13.2683 54.7101 13.5872 54.7101H25.2923C25.6112 54.7101 25.8697 54.9686 25.8697 55.2875C25.8697 55.6064 25.6112 55.8649 25.2923 55.8649H13.5872C13.2683 55.8649 13.0098 55.6064 13.0098 55.2875Z" fill="#F84663"/>
<path fill-rule="evenodd" clip-rule="evenodd" d="M13.0098 60.6482C13.0098 60.3293 13.2683 60.0708 13.5872 60.0708H22.1447C22.4636 60.0708 22.7221 60.3293 22.7221 60.6482C22.7221 60.9671 22.4636 61.2256 22.1447 61.2256H13.5872C13.2683 61.2256 13.0098 60.9671 13.0098 60.6482Z" fill="#F84663"/>
<path fill-rule="evenodd" clip-rule="evenodd" d="M62.0923 28.8461C62.0923 28.5273 62.3508 28.2688 62.6697 28.2688H72.1615C72.4806 28.2688 72.7393 28.5273 72.7393 28.8461C72.7393 29.1651 72.4806 29.4235 72.1615 29.4235H62.6697C62.3508 29.4235 62.0923 29.1651 62.0923 28.8461Z" fill="#F84663"/>
<path fill-rule="evenodd" clip-rule="evenodd" d="M62.0928 31.2015C62.0928 30.8826 62.3512 30.6241 62.6701 30.6241H67.8515C68.1706 30.6241 68.4286 30.8826 68.4286 31.2015C68.4286 31.5204 68.1706 31.7789 67.8515 31.7789H62.6701C62.3512 31.7789 62.0928 31.5204 62.0928 31.2015Z" fill="#F84663"/>
<path fill-rule="evenodd" clip-rule="evenodd" d="M62.0923 52.2389C62.0923 51.9199 62.3508 51.6615 62.6697 51.6615H72.1615C72.4806 51.6615 72.7393 51.9199 72.7393 52.2389C72.7393 52.5577 72.4806 52.8162 72.1615 52.8162H62.6697C62.3508 52.8162 62.0923 52.5577 62.0923 52.2389Z" fill="#F84663"/>
<path fill-rule="evenodd" clip-rule="evenodd" d="M62.0928 54.5942C62.0928 54.2754 62.3512 54.0168 62.6701 54.0168H67.8515C68.1706 54.0168 68.4286 54.2754 68.4286 54.5942C68.4286 54.9131 68.1706 55.1716 67.8515 55.1716H62.6701C62.3512 55.1716 62.0928 54.9131 62.0928 54.5942Z" fill="#F84663"/>
<path fill-rule="evenodd" clip-rule="evenodd" d="M62.0923 39.6483C62.0923 39.3293 62.3508 39.0709 62.6697 39.0709H72.1615C72.4806 39.0709 72.7393 39.3293 72.7393 39.6483C72.7393 39.9671 72.4806 40.2256 72.1615 40.2256H62.6697C62.3508 40.2256 62.0923 39.9671 62.0923 39.6483Z" fill="#F84663"/>
<path fill-rule="evenodd" clip-rule="evenodd" d="M62.0928 42.0036C62.0928 41.6847 62.3512 41.4262 62.6701 41.4262H67.8515C68.1706 41.4262 68.4286 41.6847 68.4286 42.0036C68.4286 42.3225 68.1706 42.581 67.8515 42.581H62.6701C62.3512 42.581 62.0928 42.3225 62.0928 42.0036Z" fill="#F84663"/>
<path fill-rule="evenodd" clip-rule="evenodd" d="M49.5444 27.1013H58.9084C60.184 27.1013 61.218 28.1354 61.218 29.4109V35.4734C61.218 36.7489 60.184 37.783 58.9084 37.783H49.5444C48.2689 37.783 47.2349 36.7489 47.2349 35.4734V29.4109C47.2349 28.1354 48.2689 27.1013 49.5444 27.1013ZM49.5444 28.2562C48.9066 28.2562 48.3896 28.7732 48.3896 29.4109V35.4734C48.3896 36.1111 48.9066 36.6281 49.5444 36.6281H58.9084C59.5462 36.6281 60.0632 36.1111 60.0632 35.4734V29.4109C60.0632 28.7732 59.5462 28.2562 58.9084 28.2562H49.5444Z" fill="#F84663"/>
<path d="M31.8323 36.4547L29.0677 34.4798C28.3034 33.9338 27.2417 34.4802 27.2417 35.4195V39.3295C27.2417 40.2638 28.2933 40.8113 29.0587 40.2755L31.8232 38.3403C32.4761 37.8833 32.4808 36.9179 31.8323 36.4547Z" fill="white"/>
<path fill-rule="evenodd" clip-rule="evenodd" d="M13.9206 21.8883H70.2372C71.2315 21.8883 72.0378 22.6946 72.0378 23.6892C72.0378 24.6839 71.2315 25.4902 70.2372 25.4902H13.9206C12.9259 25.4902 12.1196 24.6839 12.1196 23.6892C12.1196 22.6946 12.9259 21.8883 13.9206 21.8883ZM13.9206 23.043C13.5637 23.043 13.2744 23.3323 13.2744 23.6892C13.2744 24.0461 13.5637 24.3354 13.9206 24.3354H70.2372C70.5939 24.3354 70.8828 24.0461 70.8828 23.6892C70.8828 23.3323 70.5939 23.043 70.2372 23.043H13.9206Z" fill="#F84663"/>
<path fill-rule="evenodd" clip-rule="evenodd" d="M49.5444 38.3481H58.9084C60.184 38.3481 61.218 39.3822 61.218 40.6577V46.7202C61.218 47.9957 60.184 49.0297 58.9084 49.0297H49.5444C48.2689 49.0297 47.2349 47.9957 47.2349 46.7202V40.6577C47.2349 39.3822 48.2689 38.3481 49.5444 38.3481ZM49.5444 39.5029C48.9066 39.5029 48.3896 40.02 48.3896 40.6577V46.7202C48.3896 47.3579 48.9066 47.8749 49.5444 47.8749H58.9084C59.5462 47.8749 60.0632 47.3579 60.0632 46.7202V40.6577C60.0632 40.02 59.5462 39.5029 58.9084 39.5029H49.5444Z" fill="#F84663"/>
<path fill-rule="evenodd" clip-rule="evenodd" d="M49.5444 50.3174H58.9084C60.184 50.3174 61.218 51.3514 61.218 52.627V58.6894C61.218 59.965 60.184 60.999 58.9084 60.999H49.5444C48.2689 60.999 47.2349 59.9649 47.2349 58.6894V52.627C47.2349 51.3514 48.2689 50.3174 49.5444 50.3174ZM49.5444 51.4721C48.9066 51.4721 48.3896 51.9892 48.3896 52.627V58.6894C48.3896 59.3272 48.9066 59.8442 49.5444 59.8442H58.9084C59.5462 59.8442 60.0632 59.3272 60.0632 58.6894V52.627C60.0632 51.9892 59.5462 51.4721 58.9084 51.4721H49.5444Z" fill="#F84663"/>
<path fill-rule="evenodd" clip-rule="evenodd" d="M53.7305 32.9042C53.7305 33.1378 53.9934 33.2746 54.1848 33.1407L54.9919 32.5757C55.1552 32.4614 55.1564 32.22 54.9942 32.1042L54.187 31.5276C53.9959 31.3911 53.7305 31.5277 53.7305 31.7625V32.9042ZM54.8582 30.5879L55.6654 31.1645C56.4761 31.7436 56.4703 32.9504 55.6542 33.5217L54.847 34.0867C53.8903 34.7564 52.5757 34.072 52.5757 32.9042V31.7625C52.5757 30.5884 53.9028 29.9054 54.8582 30.5879Z" fill="#F84663"/>
<path fill-rule="evenodd" clip-rule="evenodd" d="M53.7305 44.5968C53.7305 44.8304 53.9934 44.9672 54.1848 44.8333L54.9919 44.2682C55.1552 44.154 55.1564 43.9126 54.9942 43.7968L54.187 43.2202C53.9959 43.0837 53.7305 43.2203 53.7305 43.4551V44.5968ZM54.8582 42.2805L55.6654 42.8572C56.4761 43.4362 56.4703 44.643 55.6542 45.2143L54.847 45.7793C53.8903 46.4491 52.5757 45.7646 52.5757 44.5968V43.4551C52.5757 42.281 53.9028 41.5981 54.8582 42.2805Z" fill="#F84663"/>
<path fill-rule="evenodd" clip-rule="evenodd" d="M53.7305 56.4128C53.7305 56.6463 53.9934 56.7832 54.1848 56.6493L54.9919 56.0842C55.1552 55.9699 55.1564 55.7286 54.9942 55.6128L54.187 55.0361C53.9959 54.8996 53.7305 55.0362 53.7305 55.271V56.4128ZM54.8582 54.0965L55.6654 54.6731C56.4761 55.2522 56.4703 56.4589 55.6542 57.0302L54.847 57.5953C53.8903 58.265 52.5757 57.5805 52.5757 56.4128V55.271C52.5757 54.0969 53.9028 53.414 54.8582 54.0965Z" fill="#F84663"/>
</svg>
