<svg width="463" height="456" viewBox="0 0 463 456" fill="none" xmlns="http://www.w3.org/2000/svg">
<path d="M390.46 157.939C389.789 156.171 388.499 153.352 384.192 148.218C379.709 142.92 374.597 138.173 368.967 134.078C364.015 130.42 360.379 127.733 354.638 125.241C348.446 122.455 341.741 120.951 334.936 120.822C332.226 120.839 329.524 121.135 326.876 121.706C323.769 122.369 321.763 122.828 319.712 124.357C317.661 125.886 318.037 126.796 316.13 127.892C313.353 129.483 311.786 128.06 308.965 129.66C307.676 130.393 308.016 130.685 305.383 133.194C303.694 134.784 301.899 136.26 300.01 137.613C296.114 140.52 295.854 140.158 293.741 142.032C291.93 143.512 290.412 145.31 289.263 147.334C288.368 149.048 286.979 151.532 287.472 154.404C287.544 154.837 287.562 154.669 289.263 158.822C289.863 160.289 290.454 161.765 291.054 163.241L292.845 167.66C292.845 167.66 294.636 170.196 289.451 179.616C294.001 174.13 297.434 167.829 299.562 161.058C300.09 159.167 300.386 157.523 301.353 154.872C303.826 148.186 307.807 142.142 312.995 137.198C311.652 147.36 319.712 162.384 325.981 166.802C330.226 169.926 334.128 173.481 337.623 177.407C340.31 184.477 341.205 181.826 341.205 181.826C337.623 172.988 349.265 169.454 351.952 182.709C354.638 195.965 341.205 198.616 341.205 198.616C343.945 201.868 344.662 204.608 344.787 206.57C344.886 208.178 344.537 208.47 344.787 210.105C344.922 210.988 345.298 212.712 348.37 217.174C350.214 219.826 351.137 221.195 351.952 221.593C355.471 223.299 360.012 220.382 360.907 219.826C362.877 218.571 363.54 217.484 367.176 212.756C371.914 206.57 371.385 207.666 373.445 204.802C376.078 201.144 376.32 200.26 380.609 193.314C385.875 184.786 385.983 185.36 387.774 181.826C390.308 176.824 391.992 173.421 392.252 168.57C392.385 164.943 391.776 161.327 390.46 157.939ZM293.741 158.239L292.845 158.513C292.845 158.407 289.263 147.484 300.234 142.076L300.637 142.862C290.374 147.935 293.678 158.133 293.741 158.239ZM336.53 165.388C320.41 156.551 319.3 137.816 319.291 137.631L320.187 137.587C320.187 137.772 321.261 156.003 336.969 164.62L336.53 165.388ZM355.856 214.877C355.516 214.874 355.179 214.823 354.853 214.727C350.259 213.348 348.047 202.699 347.958 202.24L348.853 202.072C348.853 202.178 351.047 212.676 355.122 213.878C356.277 214.223 357.522 213.746 358.83 212.447L359.465 213.074C359.008 213.592 358.452 214.015 357.827 214.318C357.203 214.621 356.524 214.799 355.829 214.841L355.856 214.877ZM364.086 174.897C362.295 169.71 353.474 155.694 353.385 155.553L354.146 155.084C354.513 155.667 363.155 169.33 364.937 174.623L364.086 174.897ZM368.43 198.917L367.767 198.325C375.558 189.779 374.824 183.717 374.815 183.664L375.711 183.54C375.711 183.761 376.508 190 368.403 198.881L368.43 198.917ZM375.711 169.489C373.078 130.605 325.56 130.137 325.112 130.137V129.253C325.596 129.253 373.92 129.713 376.606 169.427L375.711 169.489Z" fill="#070606"/>
<path d="M138.622 185.157C137.772 182.868 135.775 181.481 134.145 182.064C132.515 182.647 131.879 184.98 132.73 187.269C133.58 189.558 135.578 190.954 137.207 190.371C138.837 189.788 139.464 187.455 138.622 185.157ZM135.658 187.022C135.175 187.199 134.583 186.783 134.333 186.138C134.082 185.493 134.27 184.768 134.754 184.6C135.237 184.433 135.828 184.839 136.07 185.484C136.312 186.129 136.124 186.854 135.658 187.022ZM137.449 188.012C137.329 187.98 137.224 187.91 137.149 187.812C137.074 187.714 137.035 187.595 137.037 187.473C137.037 187.207 137.216 187.031 137.44 187.066C137.56 187.098 137.666 187.168 137.74 187.266C137.815 187.363 137.854 187.483 137.852 187.605C137.915 187.87 137.691 188.047 137.467 188.012H137.449Z" fill="black"/>
<path d="M157.617 306.404C158.501 303.545 158.805 300.542 158.513 297.567C158.106 295.056 157.193 292.652 155.826 290.497C154.411 287.943 149.351 278.761 147.766 269.287C147.56 268.077 147.48 264.507 147.318 257.357C147.202 252.143 147.103 247.866 147.318 242.334C147.435 239.267 147.632 236.307 147.883 233.497C147.286 233.62 146.65 233.78 145.975 233.974C142.691 234.764 139.63 236.275 137.02 238.393C133.312 241.6 131.924 245.613 130.751 248.997C129.524 252.532 128.816 257.781 128.682 257.834C127.339 258.488 136.67 272.796 141.497 284.346C144.265 290.974 146.477 298.857 147.766 318.811C148.348 327.79 148.581 336.715 148.581 345.323C156.901 339.031 157.635 334.206 157.617 332.067C157.468 329.694 157.169 327.333 156.722 324.997C155.584 318.414 154.581 317.547 154.931 314.393C155.28 311.238 156.328 311.574 157.617 306.404ZM149.092 290.603L148.196 290.382C148.626 288.685 147.748 285.212 145.715 280.599C145.169 279.41 144.537 278.262 143.826 277.161C137.718 267.44 140.029 244.579 140.127 243.58L141.023 243.677C141.023 243.907 138.649 267.175 144.605 276.675C145.339 277.807 145.992 278.988 146.557 280.21C148.053 283.674 149.709 288.181 149.092 290.603ZM151.662 336.76L151.026 336.132C151.026 336.132 154.402 332.668 152.701 325.952L153.596 325.731C155.405 332.968 151.814 336.609 151.662 336.76ZM152.557 309.364L151.868 308.799C153.076 307.426 153.813 305.712 153.974 303.9C154.135 302.089 153.711 300.274 152.763 298.715L153.507 298.229C154.549 299.937 155.02 301.926 154.855 303.913C154.689 305.9 153.895 307.785 152.584 309.302L152.557 309.364ZM145.079 165.892C142.957 161.97 139.879 158.629 136.124 156.171C133.787 154.554 130.751 152.424 126.273 151.753C125.306 151.602 122.35 151.655 116.422 151.753C113.046 151.806 112.078 151.859 110.153 151.753C106.383 151.54 106.069 151.107 102.989 150.869C99.0849 150.599 95.1623 150.897 91.3464 151.753C89.2198 152.205 87.1256 152.796 85.0776 153.52C80.7147 154.83 76.5103 156.608 72.5398 158.822C67.1334 161.84 62.5295 166.08 59.1066 171.194C55.8915 176.108 54.7452 180.544 53.7333 184.45C52.5622 189.075 51.9608 193.823 51.9422 198.59C51.9957 202.728 52.2947 206.859 52.8377 210.962C53.5183 217.077 53.8855 217.369 53.7333 219.799C53.378 223.836 52.1569 227.752 50.1511 231.287C48.2614 234.981 47.7778 234.46 43.4344 241.45C40.094 246.814 39.3955 248.706 38.9567 250.287C38.2673 252.881 37.9656 255.561 38.0611 258.241C38.1562 260.327 38.4561 262.398 38.9567 264.427C39.6015 267.37 40.0672 268.351 41.6433 273.264C43.2195 278.178 44.0524 280.829 44.33 282.985C44.6627 285.626 44.6627 288.298 44.33 290.939C44.0165 293.387 43.2195 295.843 41.6433 300.66C39.9328 305.865 39.7537 305.75 38.9567 308.613C37.9463 311.766 37.3445 315.032 37.1656 318.334C37.0586 321.306 37.3599 324.279 38.0611 327.171C38.7533 330.292 39.9637 333.278 41.6433 336.008C43.76 339.702 46.8559 342.757 50.5988 344.846C53.9072 346.584 57.5974 347.494 61.3455 347.497C64.4199 347.5 67.4642 346.899 70.301 345.729L71.9846 344.439C72.5219 340.639 73.1309 336.954 73.4354 333.834C74.4758 322.184 76.5739 310.649 79.7043 299.369C83.5283 285.389 86.7075 279.927 87.7642 278.16C91.1326 272.785 95.0324 267.753 99.4064 263.137C104.699 257.234 106.042 256.756 111.049 250.765C115.58 245.33 118.034 242.343 120.004 237.509C121.69 233.283 122.6 228.794 122.691 224.253C123.052 218.817 122.133 213.372 120.004 208.346C119.044 206.16 117.843 204.086 116.422 202.16C117.895 200.592 119.104 198.802 120.004 196.858C121.374 194.117 121.992 191.07 121.795 188.02C121.589 185.484 120.756 183.681 119.109 180.067C118.198 178.084 117.15 176.165 115.974 174.323C115.401 173.439 114.55 172.246 110.601 167.253C109.407 165.739 108.213 164.266 107.019 162.834L110.601 161.951C114.864 161.515 119.17 162.122 123.138 163.718C126.15 164.949 128.889 166.75 131.198 169.02C132.515 170.337 133.715 172.105 136.124 175.648C138.533 179.192 138.417 179.431 139.706 180.951C141.38 183.147 143.52 184.956 145.975 186.253C146.81 184.573 147.413 182.789 147.766 180.951C149.127 173.731 146.154 167.907 145.079 165.892ZM56.2498 331.554C52.3314 329.785 49.226 326.633 47.545 322.717C45.7539 318.219 46.1659 312.996 48.8436 307.093C56.7244 289.807 55.1124 281.819 55.1124 281.739L56.008 281.554C56.0796 281.88 57.7364 289.852 49.7391 307.455C47.0883 313.102 46.6584 318.14 48.36 322.381C49.9697 326.066 52.8956 329.038 56.5811 330.733L56.2498 331.554ZM54.0915 242.14C45.4315 254.105 52.2467 264.507 52.3004 264.613L51.5571 265.099C51.4854 264.993 44.33 254.096 53.3482 241.627C61.838 229.9 62.2141 227.788 62.2231 227.708H63.1186C63.1366 227.947 62.8768 230.006 54.0915 242.14ZM69.4054 305.538L68.5099 305.485C68.5099 304.857 69.486 290.223 75.7996 283.984L76.4355 284.611C70.3547 290.62 69.4144 305.396 69.4054 305.547V305.538ZM68.4561 202.805L67.6591 203.212C67.5337 202.964 55.2378 178.803 80.3401 161.111L80.8595 161.827C56.4199 179.086 68.3308 202.567 68.4561 202.805ZM110.547 205.456C110.852 205.942 117.711 217.475 99.8004 241.3C99.6303 241.477 87.2627 253.796 82.8476 265.929L82.0058 265.638C86.4836 253.31 99.0213 240.849 99.1198 240.726C116.61 217.431 109.866 206.04 109.804 205.925L110.547 205.456ZM106.965 191.767L106.186 191.334C110.484 183.699 101.806 169.834 101.708 169.692L102.469 169.224C102.845 169.772 111.514 183.646 106.956 191.767H106.965ZM140.602 176.081C140.352 172.583 139.27 169.192 137.444 166.184C135.617 163.176 133.097 160.636 130.088 158.769L130.518 157.992C133.655 159.933 136.285 162.578 138.192 165.71C140.1 168.842 141.232 172.374 141.497 176.02L140.602 176.081Z" fill="#070606"/>
<path d="M110.583 251.286C105.953 256.756 104.529 257.384 99.4062 263.101C95.0322 267.717 91.1324 272.75 87.764 278.125C86.7073 279.892 83.5281 285.354 79.7041 299.334C76.5737 310.614 74.4757 322.149 73.4352 333.799C72.6024 342.407 69.5396 354.938 71.6441 362.962C72.9516 367.99 94.821 369.201 105.586 369.501C104.067 379.36 103.438 389.332 103.705 399.3C141.846 405.036 146.047 400.538 146.091 398.867C146.091 397.984 146.091 397.162 146.163 396.305C147.793 378.259 149.745 348.743 147.766 318.776C146.476 298.821 144.264 290.939 141.497 284.311C137.512 274.767 130.437 263.34 128.87 259.293C118.374 263.349 112.634 255.148 110.583 251.286Z" fill="#FC6352"/>
<path d="M133.294 402.544C126.945 402.544 117.55 401.828 103.633 399.733L103.266 399.68V399.309C102.997 389.482 103.596 379.65 105.057 369.926C90.1821 369.484 72.4681 367.937 71.1965 363.068C69.6382 357.112 70.8741 348.734 71.9756 341.346C72.3786 338.624 72.7547 336.044 72.9786 333.755C74.0066 322.205 76.0775 310.768 79.1669 299.581L79.2654 299.201C81.8625 289.71 84.5939 282.534 87.3791 277.877C91.0598 271.691 95.3137 266.972 99.066 262.783C101.448 260.132 102.997 258.603 104.502 257.119C106.519 255.174 108.432 253.127 110.234 250.986L110.663 250.473L110.977 251.056C112.911 254.706 118.508 262.766 128.709 258.86L129.13 258.7L129.282 259.116C129.936 260.786 131.601 263.853 133.518 267.396C136.205 272.372 139.59 278.567 141.909 284.125C144.873 291.195 146.969 299.502 148.178 318.723C149.674 341.841 149.136 367.946 146.575 396.322C146.522 396.91 146.501 397.5 146.512 398.09C146.512 398.346 146.512 398.602 146.512 398.859C146.485 399.16 146.391 399.452 146.236 399.713C146.081 399.975 145.87 400.199 145.617 400.37C144.462 401.395 141.318 402.544 133.294 402.544ZM104.144 398.912C136.169 403.701 143.45 401.077 145.097 399.716C145.245 399.613 145.37 399.482 145.464 399.33C145.558 399.178 145.619 399.008 145.644 398.832C145.644 398.585 145.644 398.337 145.644 398.081C145.644 397.48 145.644 396.861 145.706 396.243C148.268 367.911 148.805 341.85 147.309 318.785C146.073 299.679 144.005 291.487 141.04 284.461C138.739 278.947 135.381 272.778 132.685 267.812C130.822 264.374 129.318 261.626 128.574 259.858C118.473 263.464 112.723 256.067 110.457 252.064C108.192 254.715 106.678 256.191 105.084 257.764C103.49 259.337 102.048 260.76 99.7108 263.393C95.365 267.997 91.4922 273.014 88.1492 278.372C85.3999 282.959 82.7043 290.064 80.0893 299.475L79.9818 299.855C76.9161 310.988 74.8602 322.368 73.8383 333.861C73.6055 336.185 73.2294 338.766 72.8264 341.496C71.7428 348.805 70.5158 357.085 72.0293 362.873C72.9249 366.196 85.4626 368.52 105.55 369.06H106.06L105.98 369.554C104.496 379.268 103.881 389.092 104.144 398.912Z" fill="#020202"/>
<path d="M97.3913 112.427C87.0037 112.415 77.0449 108.338 69.6997 101.09C62.3545 93.8418 58.2228 84.0146 58.2109 73.7642C58.2109 63.5395 63.2081 52.6079 71.9218 43.7707C80.6355 34.9335 91.624 29.7991 101.869 29.7991C112.257 29.8108 122.216 33.8879 129.561 41.1361C136.906 48.3842 141.038 58.2114 141.049 68.4619C141.049 78.6777 136.052 89.6093 127.339 98.4465C118.625 107.284 107.663 112.427 97.3913 112.427ZM101.869 30.6828C81.0833 30.6828 59.1065 52.82 59.1065 73.7642C59.1183 83.7802 63.1557 93.3827 70.3329 100.465C77.5102 107.548 87.2412 111.532 97.3913 111.543C118.168 111.543 140.154 89.3972 140.154 68.4619C140.142 58.4458 136.105 48.8434 128.927 41.7609C121.75 34.6785 112.019 30.6945 101.869 30.6828ZM102.541 126.567C99.5765 126.567 97.1674 123.588 97.1674 119.939C97.1674 116.289 99.5765 113.311 102.541 113.311C105.505 113.311 107.914 116.28 107.914 119.939C107.914 123.597 105.505 126.567 102.541 126.567ZM102.541 114.194C100.069 114.194 98.063 116.766 98.063 119.939C98.063 123.111 100.069 125.683 102.541 125.683C105.012 125.683 107.018 123.102 107.018 119.939C107.018 116.775 105.003 114.194 102.541 114.194ZM103.436 143.357C101.457 143.357 99.8541 141.369 99.8541 138.939C99.8541 136.508 101.457 134.52 103.436 134.52C105.415 134.52 107.018 136.5 107.018 138.939C107.018 141.378 105.406 143.357 103.436 143.357ZM103.436 135.404C101.95 135.404 100.75 136.986 100.75 138.939C100.75 140.892 101.95 142.473 103.436 142.473C104.923 142.473 106.123 140.883 106.123 138.939C106.123 136.994 104.914 135.404 103.436 135.404Z" fill="black"/>
<path d="M133.966 402.561C127.563 402.561 118.007 401.784 103.813 399.627L103.947 398.744C135.112 403.48 143.092 401.395 145.071 399.804C145.23 399.693 145.364 399.55 145.463 399.384C145.562 399.218 145.623 399.033 145.644 398.841C145.644 398.567 145.644 398.302 145.644 398.028C145.634 397.438 145.655 396.848 145.707 396.26C148.232 368.397 148.787 341.602 147.31 318.802C146.074 299.67 144.005 291.487 141.041 284.479C138.73 278.964 135.372 272.778 132.676 267.812C129.094 261.131 127.805 258.709 128.1 257.808C128.132 257.71 128.184 257.62 128.252 257.543C128.306 257.34 128.396 256.836 128.494 256.314C128.926 253.778 129.524 251.272 130.285 248.812C131.449 245.471 132.891 241.309 136.688 238.021C139.345 235.857 142.466 234.316 145.814 233.514C147.598 233.003 149.427 232.663 151.277 232.498C153.211 232.277 154.376 232.153 155.459 230.987C157.376 228.928 157.25 225.685 157.134 224.235C157.053 222.68 156.534 221.257 155.343 218.182C154.492 215.937 153.874 214.647 153.381 213.533C152.723 212.174 152.178 210.764 151.752 209.318C150.856 206.358 150.283 204.405 150.856 202.019C151.282 200.443 151.898 198.924 152.692 197.494C152.961 196.999 153.202 196.61 153.417 196.248C153.869 195.57 154.214 194.828 154.438 194.047C154.698 193.164 155.047 191.865 154.483 190.848C154.026 190.027 153.193 189.717 152.137 189.32H152.029C149.101 188.224 146.656 187.093 145.76 186.668C143.245 185.35 141.053 183.504 139.339 181.26C138.759 180.573 138.238 179.84 137.781 179.068C137.369 178.397 136.796 177.487 135.73 175.913C133.348 172.379 132.148 170.611 130.858 169.356C128.595 167.124 125.908 165.356 122.951 164.151C120.702 163.232 118.332 162.637 115.912 162.384C114.155 162.207 112.385 162.207 110.628 162.384L107.789 163.091C108.855 164.381 109.911 165.689 110.932 166.979C115.061 172.202 115.795 173.253 116.306 174.049C117.496 175.906 118.552 177.843 119.467 179.846C121.142 183.496 121.983 185.334 122.198 187.95C122.4 191.073 121.766 194.193 120.362 196.999C119.496 198.877 118.345 200.614 116.95 202.151C118.297 204.023 119.444 206.028 120.371 208.134C122.512 213.222 123.432 218.73 123.058 224.227C122.979 228.817 122.069 233.357 120.371 237.633C118.339 242.634 115.706 245.789 111.344 251.003C109.385 253.377 107.292 255.64 105.075 257.781C103.589 259.248 102.048 260.768 99.7021 263.393C95.9766 267.555 91.7496 272.23 88.1137 278.346C85.3733 282.923 82.6777 290.02 80.0537 299.449L79.9373 299.864C76.8797 310.987 74.8268 322.354 73.8028 333.834C73.5789 336.159 73.1938 338.739 72.7908 341.479C71.7072 348.787 70.4803 357.067 71.9938 362.847C73.149 367.266 93.3437 369.033 110.279 369.139C110.491 369.142 110.697 369.072 110.861 368.939C111.025 368.806 111.136 368.62 111.174 368.414C115.338 345.067 113.673 289.763 113.655 289.18H114.55C114.55 289.737 116.234 345.164 112.061 368.591C111.986 369.005 111.765 369.378 111.437 369.645C111.109 369.913 110.695 370.056 110.27 370.049C101.502 369.97 72.7371 369.245 71.1251 363.094C69.5668 357.138 70.8117 348.769 71.9042 341.373C72.3072 338.651 72.6834 336.07 72.9072 333.781C73.9355 322.25 76.0004 310.832 79.0776 299.661L79.1851 299.246C81.7911 289.737 84.5136 282.57 87.2987 277.921C90.9795 271.735 95.2333 267.025 98.9857 262.836C101.359 260.185 102.908 258.656 104.359 257.18C106.555 255.06 108.63 252.821 110.574 250.473C115.24 244.888 117.568 241.998 119.458 237.332C121.138 233.157 122.048 228.718 122.145 224.227C122.484 218.852 121.565 213.473 119.458 208.505C118.508 206.351 117.322 204.306 115.921 202.407L115.706 202.116L115.956 201.851C117.397 200.317 118.579 198.566 119.458 196.663C120.813 193.997 121.43 191.025 121.249 188.047C121.043 185.581 120.228 183.796 118.562 180.235C117.664 178.268 116.625 176.366 115.455 174.544C114.935 173.74 114.219 172.706 110.082 167.474C108.926 166.007 107.726 164.531 106.499 163.055L106.052 162.516L110.323 161.465C114.677 161.003 119.08 161.61 123.139 163.232C126.208 164.484 128.995 166.322 131.342 168.64C132.694 169.984 133.903 171.769 136.321 175.33C137.396 176.912 137.969 177.831 138.39 178.503C138.817 179.243 139.315 179.941 139.877 180.588C141.509 182.741 143.6 184.515 146.002 185.785C146.898 186.218 149.343 187.331 152.271 188.436L152.378 188.48C153.507 188.904 154.581 189.302 155.19 190.407C155.925 191.741 155.504 193.261 155.19 194.268C154.941 195.127 154.561 195.944 154.062 196.69C153.856 197.026 153.623 197.414 153.364 197.892C152.592 199.253 151.991 200.701 151.572 202.204C151.08 204.272 151.519 205.88 152.468 209.044C152.882 210.454 153.412 211.829 154.053 213.153C154.555 214.232 155.173 215.584 156.041 217.855C157.152 220.789 157.761 222.415 157.832 224.173C157.904 225.693 158.092 229.237 155.925 231.561C154.608 232.975 153.175 233.134 151.187 233.329C149.387 233.494 147.606 233.825 145.868 234.319C142.647 235.089 139.644 236.566 137.082 238.64C133.5 241.768 132.121 245.639 130.939 249.059C130.191 251.475 129.608 253.937 129.193 256.429C128.942 257.737 128.897 257.985 128.763 258.091C128.763 258.974 131.046 263.243 133.241 267.352C135.927 272.336 139.312 278.54 141.641 284.099C144.605 291.168 146.692 299.449 147.91 318.696C149.387 341.549 148.805 368.379 146.298 396.296C146.244 396.861 146.244 397.409 146.244 397.993C146.244 398.275 146.244 398.549 146.244 398.832C146.223 399.15 146.131 399.459 145.977 399.738C145.822 400.017 145.608 400.26 145.348 400.449C144.301 401.598 141.077 402.561 133.966 402.561Z" fill="#050505"/>
<path d="M86.1341 445.678C83.5012 433.863 81.2713 422.975 79.4891 413.299C71.3127 368.75 75.9069 366.002 76.4622 365.834L76.7308 366.674C76.6055 366.771 72.4501 369.97 80.3757 413.148C82.1668 422.807 84.3788 433.686 87.0118 445.493L86.1341 445.678ZM110.421 445.705C100.508 411.92 102.944 383.411 105.281 369.431L106.177 369.572C103.848 383.482 101.421 411.84 111.29 445.466L110.421 445.705Z" fill="#050505"/>
<path d="M71.3848 445.669L70.4893 445.501C72.1729 437.053 75.5849 421.641 79.5075 413.042L79.9105 413.219H80.3672L80.3224 413.405C76.4536 421.888 73.0595 437.265 71.3848 445.669ZM144.014 445.59H143.118C143.495 424.442 141.82 409.826 138.13 402.155L138.936 401.775C142.689 409.569 144.399 424.31 144.014 445.59ZM123.13 177.451L122.234 177.301C122.643 175.569 123.591 174.006 124.945 172.832C126.299 171.658 127.99 170.931 129.784 170.753L129.909 171.636C124.061 172.449 123.166 177.248 123.13 177.451ZM147.319 216.839C146.231 216.865 145.152 216.652 144.159 216.215C143.166 215.778 142.284 215.127 141.578 214.311L142.304 213.79C142.456 213.993 146.047 218.677 153.946 213.684L154.429 214.426C152.345 215.89 149.875 216.728 147.319 216.839Z" fill="#050505"/>
<path d="M307.533 282.105L297.808 445.568L298.702 445.62L308.427 282.157L307.533 282.105Z" fill="#020202"/>
<path d="M307.864 282.543L259.997 263.349L260.203 262.925C260.203 262.854 263.713 255.537 267.304 246.231C271.782 234.637 274.531 224.916 275.23 218.111C275.302 217.466 275.346 216.856 275.382 216.255V215.619L327.387 238.233L327.029 239.038L276.197 216.945C276.197 217.36 276.134 217.775 276.081 218.208C275.364 225.181 272.678 234.725 268.101 246.549C264.994 254.618 261.967 261.201 261.17 262.889L308.168 281.748L307.864 282.543Z" fill="#020202"/>
<path d="M267.627 246.797C258.017 244.702 240.903 239.108 234.231 225.287C234.061 225.066 214.243 196.902 205.108 179.996C201.324 172.915 196.148 166.648 189.884 161.562C185.418 157.926 180.741 154.55 175.877 151.452C172.659 149.459 169.781 146.974 167.352 144.091C164.611 140.759 163.59 138.223 164.307 136.57C164.817 135.386 166.178 134.697 168.337 134.52L168.408 135.404C166.617 135.554 165.507 136.067 165.131 136.924C164.566 138.24 165.569 140.529 168.05 143.543C170.412 146.357 173.218 148.777 176.361 150.71C181.247 153.816 185.947 157.197 190.439 160.837C196.803 165.997 202.061 172.357 205.905 179.546C215.004 196.407 234.805 224.527 235.002 224.81C241.79 238.861 260.211 244.252 267.824 245.904L267.627 246.797Z" fill="#020202"/>
<path d="M176.612 143.667C174.821 143.667 171.937 141.475 169.806 138.912C167.791 136.491 166.644 133.115 167.119 130.888C167.163 130.527 167.289 130.181 167.487 129.875C167.686 129.569 167.952 129.311 168.265 129.12C168.65 128.947 169.066 128.85 169.489 128.836C169.911 128.823 170.333 128.892 170.728 129.041C172.994 129.721 175.457 131.966 176.854 134.626C178.725 138.161 179.039 142.447 177.516 143.463C177.243 143.621 176.927 143.692 176.612 143.667ZM169.447 129.713C169.259 129.699 169.07 129.724 168.892 129.785C168.714 129.847 168.55 129.943 168.411 130.069C168.272 130.194 168.16 130.347 168.083 130.516C168.006 130.686 167.964 130.87 167.961 131.056C167.629 132.726 168.409 135.846 170.495 138.347C173.101 141.484 176.128 143.26 176.988 142.694C177.848 142.129 177.821 138.435 176.03 135.024C174.869 132.691 172.871 130.867 170.424 129.907C170.11 129.795 169.781 129.729 169.447 129.713Z" fill="#020202"/>
<path d="M183.257 142.809C181.887 142.809 180.212 141.97 177.346 138.479L177.284 138.408V138.302C177.01 137.165 176.598 136.064 176.057 135.024C175.477 133.941 174.738 132.949 173.863 132.081L173.791 132.001V131.904C173.298 130.473 172.251 126.929 173.272 125.002C173.398 124.743 173.579 124.513 173.803 124.329C174.027 124.144 174.289 124.009 174.57 123.933C176.845 123.297 180.033 127.15 183.114 131.153C185.863 134.741 187.206 138.62 186.463 140.821C186.327 141.247 186.085 141.633 185.757 141.942C185.43 142.251 185.029 142.473 184.591 142.588C184.16 142.726 183.71 142.801 183.257 142.809ZM178.108 138.002C181.797 142.42 183.176 142.067 184.278 141.758C184.579 141.681 184.854 141.528 185.077 141.314C185.3 141.1 185.463 140.833 185.55 140.538C186.194 138.638 184.869 134.997 182.335 131.701C180.481 129.288 176.639 124.251 174.749 124.79C174.587 124.836 174.436 124.916 174.308 125.024C174.18 125.132 174.077 125.266 174.006 125.418C173.424 126.513 173.63 128.855 174.543 131.533C175.452 132.448 176.218 133.49 176.818 134.626C177.381 135.697 177.814 136.83 178.108 138.002ZM275.499 218.535C254.31 209.336 229.082 174.756 219.222 160.316C217.288 157.47 215.094 154.731 213.016 152.159C210.51 148.875 208.59 145.193 207.338 141.272C205.547 130.031 199.055 125.197 198.992 125.153C188.532 115.697 181.573 118.083 181.502 118.136C179.308 119.232 178.126 120.398 178.036 121.591C177.937 123.005 179.37 124.242 180.588 125.126C181.155 125.525 181.754 125.877 182.379 126.178C192.347 128.829 193.377 138.815 193.395 138.912L192.499 138.992C192.499 138.903 191.505 129.545 182.084 127.008C181.368 126.684 180.682 126.299 180.033 125.86C178.018 124.481 176.997 122.996 177.096 121.547C177.194 120.098 178.555 118.604 181.099 117.349C181.448 117.217 188.693 114.698 199.52 124.49C199.762 124.658 206.362 129.562 208.162 141.095C209.407 144.875 211.267 148.43 213.67 151.62C215.757 154.209 217.96 156.922 219.939 159.839C229.79 174.217 254.865 208.638 275.83 217.749L275.499 218.535Z" fill="#020202"/>
<path d="M179.11 127.035L178.465 126.416C178.969 125.937 179.514 125.502 180.095 125.117L180.606 125.842C180.071 126.193 179.57 126.592 179.11 127.035ZM173.853 120.681C173.343 120.133 161.253 107.337 158.575 102.927C157.42 101.036 157.062 99.4893 157.492 98.3405C157.597 98.0517 157.76 97.7865 157.971 97.5605C158.182 97.3344 158.436 97.152 158.718 97.0237C159.166 96.6437 161.531 95.0796 165.686 98.9149C167.173 100.276 168.507 101.504 169.931 102.635C173.889 105.799 181.063 111.888 184.689 117.155L183.955 117.65C180.373 112.48 173.289 106.453 169.367 103.325C167.925 102.167 166.572 100.939 165.077 99.56C161.154 95.9456 159.292 97.6954 159.274 97.713L159.202 97.7837H159.104C158.918 97.868 158.752 97.9904 158.618 98.1428C158.483 98.2952 158.383 98.474 158.324 98.6675C158.101 99.2772 158.101 100.435 159.345 102.476C161.969 106.807 174.382 119.947 174.507 120.071L173.853 120.681Z" fill="#020202"/>
<path d="M324.853 445.599L323.957 445.581L326.357 278.407L328.148 278.425L324.853 445.599Z" fill="#020202"/>
<path d="M382.06 445.643L381.165 445.537C383.224 428.658 383.636 388.422 383.717 371.905H384.612C384.541 388.44 384.129 428.72 382.06 445.643Z" fill="#020202"/>
<path d="M414.68 375.501L409.407 445.529L410.3 445.594L415.573 375.567L414.68 375.501Z" fill="#020202"/>
<path d="M421.035 378.233C419.295 378.132 417.618 377.557 416.19 376.571C409.213 372.267 377.349 372.223 377.027 372.223C376.884 372.223 373.445 372.223 372.075 370.094C371.296 368.927 371.305 367.38 372.075 365.507L371.179 302.851H372.075L372.97 365.693V365.772C372.263 367.398 372.218 368.697 372.836 369.616C373.964 371.322 377 371.384 377.036 371.384C378.353 371.384 409.482 371.384 416.673 375.864C418.984 377.287 420.927 377.72 422.449 377.146C423.036 376.882 423.56 376.502 423.99 376.029C424.42 375.556 424.746 375.001 424.948 374.397C424.993 373.098 425.548 350.537 417.784 302.074C410.243 254.927 360.236 226.074 354.889 223.113C346.829 245.71 328.3 265.867 328.112 266.071L327.217 267.016L327.306 265.744C328.73 246.072 326.581 229.511 322.076 225.455C318.494 222.265 315.225 222.035 315.189 222.035C314.359 221.997 313.529 222.101 312.735 222.344C311.803 222.584 310.859 222.773 309.906 222.91C306.887 223.343 304.299 223.705 301.649 222.91C298.201 221.849 295.326 219.021 293.32 214.727C293.046 214.166 292.85 213.571 292.738 212.959C292.559 212.234 292.254 211.006 291.502 208.461L291.403 208.116C290.177 204.007 289.568 201.93 288.842 200.587C287.311 197.688 286.111 195.391 283.612 193.676L283.236 193.42C282.157 192.838 281.294 191.931 280.773 190.831C280.294 189.584 280.294 188.207 280.773 186.96C281.439 185.514 282.604 184.349 284.06 183.673C284.927 183.196 285.741 182.63 286.487 181.985C287.421 181.163 288.295 180.277 289.102 179.333L289.782 179.908C288.957 180.881 288.059 181.79 287.096 182.63C286.313 183.301 285.464 183.893 284.561 184.397C283.27 184.979 282.23 185.994 281.624 187.26C281.231 188.295 281.231 189.434 281.624 190.468C282.085 191.403 282.835 192.17 283.764 192.66L284.149 192.916C286.836 194.763 288.081 197.14 289.666 200.154C290.427 201.586 291.045 203.689 292.29 207.842L292.389 208.187C293.15 210.75 293.454 211.987 293.633 212.729C293.74 213.276 293.915 213.807 294.153 214.311C296.051 218.376 298.747 221.045 301.944 222.026C304.398 222.777 306.896 222.424 309.789 222.026C310.719 221.898 311.64 221.715 312.547 221.478C313.417 221.216 314.326 221.102 315.234 221.142C315.386 221.142 318.87 221.372 322.676 224.792C327.351 228.981 329.572 244.853 328.291 264.498C332.07 260.185 347.241 242.14 354.191 222.318L354.37 221.832L354.826 222.07C355.382 222.371 410.646 251.922 418.643 301.932C426.623 351.765 425.808 374.265 425.808 374.486V374.583C425.573 375.328 425.179 376.016 424.653 376.598C424.126 377.18 423.478 377.644 422.754 377.959C422.202 378.152 421.62 378.245 421.035 378.233Z" fill="#020202"/>
<path d="M354.387 222.53C353.476 222.546 352.574 222.349 351.755 221.955C350.859 221.514 349.963 220.232 348.02 217.431C344.724 212.632 344.438 210.891 344.339 210.14C344.228 209.459 344.213 208.766 344.295 208.081C344.354 207.579 344.369 207.074 344.339 206.57C344.044 203.702 342.823 201.004 340.856 198.873L340.381 198.298L341.115 198.157C341.644 198.051 354.074 195.426 351.513 182.762C350.617 178.344 348.477 175.224 345.817 174.508C345.152 174.312 344.445 174.304 343.776 174.487C343.108 174.67 342.505 175.036 342.038 175.542C340.793 176.93 340.632 179.201 341.617 181.631L341.68 181.781L341.626 181.932C341.564 182.145 341.439 182.334 341.266 182.476C341.094 182.618 340.882 182.705 340.659 182.727C339.978 182.727 338.975 182.117 337.256 177.61C333.8 173.731 329.943 170.218 325.748 167.129C319.792 162.94 311.84 148.748 312.458 138.347C307.733 143.072 304.098 148.748 301.801 154.987C301.266 156.479 300.812 157.998 300.439 159.538C300.305 160.068 300.171 160.599 300.019 161.147C299.822 161.854 299.58 162.613 299.293 163.4C299.168 163.762 299.025 164.142 298.872 164.514V164.611C298.738 164.973 298.586 165.327 298.433 165.689C297.941 166.882 297.359 168.146 296.696 169.436L296.32 170.169C296.027 170.758 295.714 171.333 295.38 171.893C295.272 172.087 295.156 172.299 295.039 172.494L294.645 173.165L294.009 174.093C293.955 174.198 293.892 174.298 293.821 174.393C293.66 174.659 293.481 174.941 293.284 175.224C293.221 175.331 293.152 175.434 293.078 175.534C292.962 175.728 292.809 175.949 292.666 176.152C291.78 177.449 290.824 178.696 289.8 179.89L287.32 182.338L289.173 179.21L289.281 179.024C290.079 177.563 290.794 176.058 291.421 174.517L291.502 174.332C291.574 174.128 291.654 173.934 291.726 173.748C291.887 173.28 292.039 172.865 292.147 172.44C292.191 172.328 292.227 172.213 292.254 172.096C292.403 171.582 292.52 171.06 292.603 170.532C292.603 170.381 292.603 170.311 292.648 170.24C292.693 170.169 292.693 169.931 292.702 169.798C292.711 169.666 292.702 169.586 292.702 169.515C292.779 168.955 292.705 168.385 292.487 167.863L292.442 167.783L289.908 161.518L288.86 158.946C288.117 157.117 287.696 156.127 287.445 155.561C287.264 155.205 287.129 154.828 287.042 154.439C286.532 151.426 287.938 148.819 288.878 147.095C290.054 145.023 291.605 143.181 293.454 141.66C294.26 140.938 295.136 140.296 296.069 139.743C296.884 139.239 297.86 138.612 299.759 137.224C301.632 135.869 303.412 134.393 305.087 132.806C305.861 132.083 306.588 131.312 307.264 130.499C307.663 129.966 308.172 129.523 308.759 129.2C309.918 128.552 311.233 128.226 312.565 128.254C313.74 128.291 314.902 128.006 315.924 127.433C316.568 127.081 317.11 126.573 317.5 125.957C318.024 125.174 318.685 124.489 319.452 123.933C321.548 122.378 323.509 121.9 326.796 121.202C329.477 120.63 332.211 120.333 334.954 120.319C341.818 120.435 348.584 121.939 354.835 124.737C360.62 127.247 364.239 129.916 369.245 133.619C374.904 137.737 380.043 142.511 384.55 147.838C388.723 152.813 390.138 155.712 390.899 157.682C392.215 161.123 392.824 164.788 392.69 168.464C392.421 173.501 390.63 177.018 388.159 181.896C387.431 183.357 386.596 184.763 385.66 186.103C384.765 187.446 383.421 189.461 380.976 193.42C379.355 196.071 378.334 197.777 377.502 199.173C376.376 201.187 375.142 203.14 373.803 205.023C372.818 206.393 372.424 206.87 371.761 207.674C371.098 208.479 370.015 209.778 367.534 212.977L366.155 214.744C363.656 218.014 362.904 219.004 361.149 220.126C359.169 221.538 356.825 222.371 354.387 222.53ZM341.984 198.837C343.827 201.009 344.96 203.68 345.235 206.499C345.27 207.053 345.255 207.609 345.19 208.16C345.097 208.77 345.097 209.389 345.19 209.999C345.298 210.688 345.539 212.296 348.701 216.892C350.492 219.437 351.387 220.815 352.113 221.16C354.217 222.176 357.235 221.567 360.612 219.393C362.25 218.341 362.922 217.466 365.403 214.214L366.782 212.447C369.272 209.212 370.364 207.94 371.036 207.144C371.707 206.349 372.075 205.898 373.042 204.555C374.36 202.718 375.583 200.815 376.705 198.855C377.537 197.459 378.567 195.718 380.188 193.093C382.633 189.125 383.985 187.093 384.881 185.758C385.801 184.444 386.621 183.065 387.335 181.631C389.753 176.85 391.508 173.404 391.768 168.552C391.882 164.993 391.273 161.447 389.977 158.124C389.242 156.224 387.872 153.405 383.779 148.527C379.319 143.26 374.235 138.539 368.636 134.467C363.665 130.791 360.083 128.148 354.396 125.63C348.26 122.872 341.615 121.383 334.873 121.255C332.193 121.275 329.521 121.572 326.903 122.139C323.742 122.82 321.852 123.27 319.918 124.711C319.217 125.213 318.611 125.832 318.127 126.54C317.671 127.278 317.029 127.887 316.264 128.307C315.117 128.954 313.813 129.278 312.494 129.244C311.307 129.21 310.133 129.497 309.099 130.075C308.607 130.347 308.179 130.721 307.846 131.171C307.149 132.01 306.399 132.804 305.598 133.548C303.906 135.134 302.111 136.61 300.225 137.967C298.326 139.38 297.296 140.017 296.472 140.529C295.58 141.052 294.745 141.665 293.983 142.359C292.213 143.805 290.729 145.561 289.603 147.537C288.663 149.305 287.391 151.611 287.857 154.324C287.927 154.647 288.041 154.96 288.197 155.252C288.448 155.827 288.869 156.816 289.621 158.654L290.669 161.226L293.186 167.456C293.498 168.115 293.616 168.847 293.526 169.568C293.526 169.648 293.526 169.754 293.526 169.86C293.514 170.038 293.493 170.215 293.463 170.39C293.469 170.47 293.469 170.549 293.463 170.629C293.376 171.208 293.251 171.781 293.087 172.343C293.057 172.478 293.018 172.611 292.971 172.741C292.863 173.139 292.702 173.625 292.532 174.075L292.299 174.685L292.218 174.88C292.102 175.171 291.985 175.463 291.851 175.763L291.923 175.657C292.066 175.454 292.209 175.242 292.335 175.039C292.46 174.835 292.469 174.844 292.532 174.747C292.729 174.455 292.899 174.19 293.069 173.916C293.141 173.81 293.194 173.731 293.239 173.651L293.812 172.714L294.198 172.06L294.538 171.468C294.86 170.903 295.165 170.337 295.433 169.772L295.809 169.038C296.454 167.766 297.027 166.528 297.511 165.353C297.681 164.964 297.833 164.584 297.977 164.213L298.021 164.116C298.147 163.78 298.281 163.444 298.389 163.108C298.675 162.34 298.908 161.597 299.096 160.908C299.248 160.369 299.383 159.847 299.517 159.317C299.897 157.754 300.36 156.211 300.905 154.695C303.389 147.94 307.408 141.837 312.655 136.853L313.55 135.969L313.38 137.233C312.037 147.413 320.168 162.18 326.187 166.396C330.458 169.545 334.386 173.122 337.909 177.071L337.99 177.204C339.718 181.764 340.551 181.826 340.587 181.826C340.618 181.81 340.643 181.785 340.659 181.755C339.629 179.104 339.871 176.541 341.321 174.941C341.891 174.304 342.636 173.843 343.465 173.612C344.294 173.382 345.173 173.392 345.996 173.642C347.438 174.022 350.94 175.666 352.337 182.577C354.773 194.339 344.787 198.051 341.984 198.837Z" fill="#020202"/>
<path d="M314.795 162.437C314.651 161.389 314.281 160.383 313.711 159.487C313.141 158.591 312.384 157.825 311.491 157.24C308.5 155.473 304.649 156.578 304.613 156.595L304.353 155.712C304.532 155.659 308.625 154.474 311.957 156.454C312.96 157.098 313.812 157.947 314.453 158.944C315.094 159.942 315.51 161.063 315.673 162.234L314.795 162.437ZM300.986 212.279L300.816 211.395C305.168 210.511 306.798 209.053 307.389 207.966C307.754 207.34 307.86 206.599 307.685 205.898L302.41 201.559L302.983 200.879L308.437 205.368V205.474C308.601 205.953 308.658 206.462 308.606 206.965C308.553 207.468 308.392 207.954 308.133 208.39C307.174 210.228 304.756 211.527 300.986 212.279ZM329.563 110.58C329.27 110.58 328.979 110.523 328.708 110.412C328.437 110.301 328.19 110.138 327.983 109.932C327.776 109.727 327.612 109.484 327.5 109.216C327.389 108.948 327.332 108.66 327.333 108.371V101.301C327.333 100.731 327.555 100.184 327.954 99.7721C328.353 99.3605 328.897 99.1167 329.474 99.0917L346.641 98.3582C347.218 98.3357 347.781 98.5336 348.213 98.9106C348.645 99.2876 348.913 99.8147 348.961 100.382L349.561 107.452C349.587 107.748 349.552 108.046 349.458 108.329C349.364 108.611 349.213 108.872 349.015 109.095C348.813 109.318 348.567 109.498 348.294 109.626C348.02 109.753 347.723 109.825 347.42 109.838L329.662 110.571L329.563 110.58ZM346.74 99.2419H346.677L329.509 99.9754C329.164 99.9913 328.838 100.138 328.6 100.385C328.361 100.632 328.228 100.96 328.229 101.301V108.371C328.229 108.549 328.265 108.726 328.336 108.891C328.407 109.055 328.511 109.203 328.641 109.327C328.772 109.451 328.926 109.548 329.095 109.611C329.264 109.674 329.445 109.703 329.626 109.696L347.385 108.963C347.567 108.958 347.745 108.916 347.91 108.84C348.075 108.764 348.222 108.656 348.343 108.521C348.462 108.386 348.552 108.229 348.609 108.059C348.666 107.889 348.688 107.71 348.674 107.531L348.074 100.461C348.047 100.129 347.894 99.818 347.645 99.5919C347.396 99.3658 347.069 99.2408 346.731 99.2419H346.74Z" fill="#020202"/>
<path d="M345.539 98.8442L329.482 99.5423C329.381 99.5332 329.279 99.5332 329.178 99.5423C329.375 97.5628 329.437 89.6182 320.16 79.694C310.882 69.7698 302.392 54.1544 315.368 42.6396C320.028 38.6144 325.953 36.3012 332.142 36.0912C341.098 35.6758 354.88 37.6289 361.803 51.8568C361.803 51.8568 368.072 60.694 356.429 73.9498C345.101 86.8875 343.945 89.7419 345.539 98.8442Z" fill="#FC6352"/>
<path d="M328.667 100.117L328.721 99.5335C328.927 97.4126 328.909 89.7507 319.819 80.0209C315.342 75.2135 307.837 65.6516 308.312 55.6302C308.544 50.5754 310.819 46.1037 315.055 42.3744C319.785 38.2957 325.793 35.9461 332.07 35.72C340.211 35.34 354.952 36.913 362.161 51.733C362.161 51.733 368.43 60.9414 356.725 74.3033C345.557 87.02 344.348 89.7595 345.934 98.8L346.023 99.2949L329.455 100.02C329.375 100.009 329.294 100.009 329.214 100.02L328.667 100.117ZM334.309 36.4889C333.575 36.4889 332.859 36.4889 332.151 36.5419C326.066 36.7492 320.24 39.0215 315.655 42.9754C311.598 46.5721 309.386 50.8316 309.207 55.6391C308.75 65.36 316.076 74.6921 320.473 79.4023C329.187 88.7168 329.787 96.2902 329.653 99.0651L345.002 98.3935C343.507 89.4679 345.002 86.2865 356.08 73.6493C367.328 60.8354 361.454 52.1837 361.454 52.0954C355.247 39.4405 343.686 36.5154 334.318 36.5154L334.309 36.4889ZM342.101 114.636H334.936C333.986 114.636 333.075 114.264 332.403 113.601C331.731 112.938 331.354 112.039 331.354 111.101V109.634L345.683 109.042V111.101C345.683 112.039 345.305 112.938 344.634 113.601C343.962 114.264 343.051 114.636 342.101 114.636ZM332.25 110.465V111.084C332.25 111.787 332.533 112.461 333.037 112.958C333.54 113.456 334.224 113.735 334.936 113.735H342.101C342.813 113.735 343.497 113.456 344 112.958C344.504 112.461 344.787 111.787 344.787 111.084V109.953L332.25 110.465Z" fill="#020202"/>
<path d="M338.966 118.171C338.135 118.171 337.338 117.845 336.75 117.265C336.162 116.685 335.832 115.898 335.832 115.078V113.753H342.101V115.078C342.101 115.898 341.771 116.685 341.183 117.265C340.595 117.845 339.798 118.171 338.966 118.171ZM336.728 114.636V115.078C336.728 115.664 336.963 116.226 337.383 116.64C337.803 117.055 338.373 117.287 338.966 117.287C339.56 117.287 340.13 117.055 340.55 116.64C340.969 116.226 341.205 115.664 341.205 115.078V114.636H336.728Z" fill="#020202"/>
<path d="M315.26 96.33L311.678 104.285L312.497 104.643L316.079 96.6889L315.26 96.33Z" fill="#020202"/>
<path d="M307.693 87.0612L303.214 95.8977L304.015 96.293L308.494 87.4565L307.693 87.0612Z" fill="#020202"/>
<path d="M300.67 77.1525L293.506 81.5661L293.981 82.3157L301.144 77.9021L300.67 77.1525Z" fill="#020202"/>
<path d="M296.318 64.7341L289.149 66.5003L289.366 67.3577L296.535 65.5915L296.318 64.7341Z" fill="#020202"/>
<path d="M290.25 53.2201L290.074 54.0867L299.031 55.8545L299.207 54.9879L290.25 53.2201Z" fill="#020202"/>
<path d="M295.697 41.7531L295.333 42.5607L303.394 46.0956L303.758 45.2881L295.697 41.7531Z" fill="#020202"/>
<path d="M303.168 27.207L302.496 27.7914L308.792 34.8379L309.463 34.2535L303.168 27.207Z" fill="#020202"/>
<path d="M316.525 16.3341L315.757 16.7887L321.129 25.6248L321.897 25.1702L316.525 16.3341Z" fill="#020202"/>
<path d="M329.98 11.9568L329.154 12.2967L333.632 22.9013L334.458 22.5614L329.98 11.9568Z" fill="#020202"/>
<path d="M344.332 10.2828L343.446 10.4077L345.237 22.778L346.123 22.653L344.332 10.2828Z" fill="#020202"/>
<path d="M356.027 12.8784L352.443 24.365L353.299 24.625L356.883 13.1384L356.027 12.8784Z" fill="#020202"/>
<path d="M365.877 17.1845L360.504 26.0196L361.272 26.4744L366.645 17.6392L365.877 17.1845Z" fill="#020202"/>
<path d="M374.025 25.9793L366.866 33.9359L367.536 34.5226L374.695 26.566L374.025 25.9793Z" fill="#020202"/>
<path d="M379.442 35.668L369.587 43.6133L370.154 44.2976L380.008 36.3523L379.442 35.668Z" fill="#020202"/>
<path d="M383.954 45.346L376.791 49.7596L377.265 50.5092L384.429 46.0956L383.954 45.346Z" fill="#020202"/>
<path d="M386.764 62.094L376.916 64.749L377.152 65.6015L387 62.9465L386.764 62.094Z" fill="#020202"/>
<path d="M380.609 75.3107H370.758V76.1944H380.609V75.3107Z" fill="#020202"/>
<path d="M367.227 85.0196L367.066 85.8891L376.917 87.6557L377.077 86.7862L367.227 85.0196Z" fill="#020202"/>
<path d="M360.286 92.1834L359.749 92.8904L366.913 98.1927L367.451 97.4857L360.286 92.1834Z" fill="#020202"/>
<path d="M354.949 97.5257L354.315 98.1506L359.692 103.456L360.325 102.831L354.949 97.5257Z" fill="#020202"/>
<path d="M335.832 86.9582C334.971 84.9364 334.663 82.7274 334.937 80.5512C335.058 79.6291 335.333 78.7332 335.751 77.9C332.456 76.6275 328.901 73.8968 328.229 70.5563C328.104 69.4396 328.306 68.3111 328.811 67.3042C328.165 67.3649 327.516 67.3915 326.868 67.3837C325.972 67.3837 318.073 67.101 316.596 62.6558C315.799 60.2521 317.24 57.7423 318.673 55.9749C317.713 54.3156 316.995 52.5305 316.542 50.6726C316.211 49.2851 315.79 46.8637 316.784 46.254C317.778 45.6442 319.166 46.9963 321.781 49.6033C322.47 50.2837 323.232 51.0437 324.002 51.7507C325.625 50.9196 327.414 50.4491 329.241 50.3721V50.1512C329.241 48.3219 329.169 46.6163 330.298 46.1568C331.193 45.8298 332.089 46.3689 333.951 48.4368L334.354 46.7754C334.874 44.5219 335.25 42.8958 336.629 42.6042C337.525 42.4098 338.734 42.9135 339.961 44.0358C341.597 45.5993 342.842 47.5176 343.597 49.6386C345.695 49.3424 347.834 49.4992 349.865 50.0982C352.051 50.7786 353.573 51.9716 354.173 53.474C354.898 55.2414 354.37 57.8926 352.794 60.1814C351.218 62.4703 349.265 63.787 347.474 63.8223C346.149 63.8223 345.253 63.2303 342.853 60.4642C343.496 62.5538 343.987 64.6861 344.322 66.8447C345.056 71.5814 345.746 76 343.265 77.8647C341.814 78.9605 339.352 79.0665 336.593 78.174C336.197 78.9563 335.937 79.7987 335.823 80.6661C335.597 82.6895 335.909 84.7363 336.728 86.6047L335.832 86.9582ZM337.005 77.3875C339.387 78.1209 341.483 78.0414 342.692 77.1665C344.752 75.62 344.107 71.4223 343.417 66.9772C343.091 64.8854 342.619 62.8184 342.002 60.7912C341.653 61.2214 341.28 61.6315 340.883 62.0196C341.017 62.6024 341.116 63.1926 341.179 63.787C341.537 67.4103 340.373 70.2823 339.387 72.8275C338.82 74.2365 338.134 75.5963 337.337 76.8926C337.22 77.0605 337.122 77.2196 337.032 77.3875H337.005ZM329.841 67.154C329.308 68.138 329.06 69.2479 329.124 70.3619C329.742 73.393 333.101 75.9205 336.19 77.087C336.307 76.8749 336.441 76.6628 336.575 76.433C337.335 75.1669 337.986 73.8395 338.519 72.4651C339.558 69.9023 340.623 67.2423 340.31 63.8312C340.273 63.4457 340.216 63.0622 340.14 62.6823C337.181 65.0795 333.613 66.6293 329.823 67.1628L329.841 67.154ZM319.184 56.7437C317.939 58.3168 316.802 60.42 317.446 62.3554C318.754 66.2791 326.554 66.4647 326.886 66.4735C327.661 66.4795 328.435 66.4382 329.205 66.3498C329.966 64.6796 331.148 62.5233 332.787 59.6335C334.023 57.3977 334.981 55.6568 335.841 54.3312C335.202 53.5575 334.44 52.8919 333.584 52.3605C332.723 54.3034 331.471 56.0532 329.904 57.5037C328.695 58.6172 326.662 60.4907 324.181 60.2698C322.211 60.093 320.518 58.6968 319.184 56.7437ZM336.387 55.0735C335.599 56.3284 334.686 57.9721 333.539 60.0577C332.16 62.5409 331.041 64.5647 330.262 66.2437C333.835 65.6817 337.18 64.1521 339.925 61.8251C339.448 60.1313 338.695 58.5254 337.695 57.0707L337.623 56.9117C337.238 56.293 336.835 55.6744 336.387 55.0735ZM342.996 59.2977C345.495 62.2316 346.337 62.9828 347.429 62.9386C348.889 62.9386 350.68 61.6484 351.988 59.713C353.412 57.6186 353.904 55.3651 353.286 53.8186C352.794 52.5726 351.495 51.5563 349.543 50.9554C347.696 50.4193 345.756 50.2718 343.847 50.5223C344.344 52.1263 344.496 53.8147 344.295 55.48C344.116 56.8234 343.675 58.1198 342.996 59.2977ZM336.871 54.287C337.408 54.9763 337.883 55.7098 338.358 56.4344L338.411 56.5051C339.363 57.9007 340.105 59.4247 340.614 61.0298C340.993 60.627 341.343 60.1988 341.662 59.7484C341.537 59.3684 341.411 58.9972 341.277 58.6261C340.596 57.8042 339.817 56.8586 338.931 55.7805L338.169 54.7907L337.274 53.7214C337.166 53.907 337.032 54.0926 336.907 54.287H336.871ZM319.739 56.0544C320.948 57.9103 322.479 59.28 324.217 59.4303C326.312 59.607 328.077 57.9721 329.25 56.894C330.74 55.5075 331.929 53.8356 332.742 51.9805L332.519 51.8833C331.759 51.5749 330.955 51.3841 330.136 51.3177C330.136 52.9261 329.948 54.393 328.865 54.9586C327.539 55.6479 325.739 54.4991 323.832 52.8023C322.769 53.3715 321.785 54.0724 320.903 54.8879C320.608 55.153 320.196 55.5507 319.775 56.0279L319.739 56.0544ZM342.101 58.1842L342.423 58.5642C342.951 57.5651 343.297 56.4823 343.444 55.3651C343.637 53.7815 343.484 52.1756 342.996 50.6549C341.709 50.8785 340.466 51.3052 339.316 51.9186C340.39 53.9411 341.32 56.0347 342.101 58.1842ZM337.865 53.0233C338.178 53.4121 338.519 53.8098 338.859 54.234L339.656 55.1972L340.256 55.9307C339.746 54.7289 339.181 53.5447 338.564 52.3958C338.312 52.584 338.078 52.794 337.865 53.0233ZM317.321 46.9256H317.258C317.043 47.067 316.882 48.3572 317.491 50.6903C317.887 52.263 318.489 53.7781 319.282 55.1972C319.649 54.7907 319.999 54.4461 320.276 54.1898C321.14 53.3802 322.103 52.6797 323.142 52.1042C322.47 51.4856 321.799 50.8051 321.127 50.1423C319.927 48.9582 317.921 46.9521 317.321 46.9521V46.9256ZM324.709 52.3163C326.214 53.6154 327.638 54.5433 328.453 54.0837C329.124 53.7391 329.241 52.5107 329.25 51.2028C327.674 51.2767 326.129 51.6645 324.709 52.3428V52.3163ZM333.898 51.5121C334.816 52.0508 335.637 52.7379 336.325 53.5447C336.45 53.3591 336.584 53.1823 336.71 53.0233C335.814 51.9716 335.053 51.0349 334.354 50.2219C334.22 50.6726 334.041 51.1056 333.898 51.5386V51.5121ZM334.659 49.2233C335.393 50.107 336.262 51.0879 337.292 52.334C337.547 52.0574 337.829 51.8058 338.134 51.5828C337.578 50.5665 336.978 49.5591 336.343 48.5605L337.104 48.0921C337.74 49.0907 338.34 50.0982 338.895 51.1144C340.085 50.4734 341.369 50.0201 342.701 49.7712C341.995 47.8456 340.852 46.1046 339.361 44.681C338.375 43.7972 337.426 43.3289 336.817 43.4526C336.002 43.6293 335.662 45.1051 335.223 46.9875C335.062 47.721 334.883 48.4544 334.659 49.2498V49.2233ZM330.136 50.3721C331.075 50.4368 331.997 50.6486 332.868 50.9996L333.092 51.0968C333.316 50.5312 333.504 49.9744 333.665 49.4265C332.116 47.6591 331.095 46.7754 330.62 46.961C330.145 47.1465 330.11 48.8079 330.136 50.1158V50.3721ZM336.28 92.1014C335.926 92.1014 335.579 91.9978 335.285 91.8035C334.99 91.6093 334.761 91.3333 334.625 91.0103C334.49 90.6874 334.454 90.332 334.523 89.9892C334.592 89.6463 334.763 89.3314 335.013 89.0842C335.264 88.837 335.583 88.6687 335.93 88.6005C336.278 88.5323 336.638 88.5673 336.965 88.7011C337.293 88.8348 337.572 89.0614 337.769 89.352C337.966 89.6427 338.071 89.9844 338.071 90.334C338.071 90.8027 337.882 91.2523 337.546 91.5837C337.21 91.9152 336.755 92.1014 336.28 92.1014ZM336.28 89.4502C336.103 89.4502 335.93 89.5021 335.782 89.5992C335.635 89.6963 335.52 89.8343 335.452 89.9958C335.385 90.1573 335.367 90.3349 335.402 90.5064C335.436 90.6778 335.521 90.8353 335.647 90.9589C335.772 91.0824 335.931 91.1666 336.105 91.2007C336.279 91.2348 336.459 91.2173 336.623 91.1504C336.786 91.0835 336.926 90.9703 337.024 90.8249C337.123 90.6796 337.175 90.5088 337.175 90.334C337.175 90.0996 337.081 89.8748 336.913 89.7091C336.745 89.5434 336.517 89.4502 336.28 89.4502Z" fill="#020202"/>
<path d="M96.2362 83.9535L96.075 81.9033C95.5914 77.6261 97.0333 72.96 101.045 68.2144C104.628 64.0256 106.651 60.9414 106.651 57.38C106.651 53.3502 104.09 50.6637 99.0393 50.5842C96.1639 50.5795 93.3544 51.4328 90.9793 53.0321L89.0181 48.0744C91.6599 46.1833 96.2362 44.9107 100.481 44.9107C109.696 44.9107 113.861 50.5312 113.861 56.5405C113.861 61.9223 110.816 65.793 106.974 70.3C103.445 74.4181 102.165 77.8912 102.407 81.9298L102.487 83.98L96.2362 83.9535ZM94.4451 95.0265C94.4016 94.3815 94.4943 93.7346 94.7175 93.1268C94.9407 92.519 95.2894 91.9636 95.7415 91.4958C96.1937 91.0281 96.7394 90.6581 97.3441 90.4094C97.9488 90.1607 98.5992 90.0387 99.2542 90.0512C102.057 90.0512 103.983 92.1014 103.983 95.0265C104.011 95.6617 103.908 96.2958 103.681 96.8907C103.454 97.4856 103.107 98.0291 102.661 98.4882C102.216 98.9474 101.681 99.3128 101.088 99.5624C100.496 99.812 99.8582 99.9407 99.2139 99.9407C98.5697 99.9407 97.9321 99.812 97.3396 99.5624C96.7471 99.3128 96.212 98.9474 95.7664 98.4882C95.3208 98.0291 94.974 97.4856 94.747 96.8907C94.5199 96.2958 94.4172 95.6617 94.4451 95.0265Z" fill="black"/>
<path d="M99.2002 100.4C98.5014 100.408 97.8083 100.274 97.1635 100.008C96.5187 99.7422 95.936 99.3487 95.4511 98.852C94.9663 98.3553 94.5895 97.766 94.3441 97.1203C94.0986 96.4745 93.9897 95.7861 94.0239 95.0972C93.9846 94.3951 94.0919 93.6924 94.3391 93.0329C94.5864 92.3733 94.9683 91.7709 95.4611 91.263C95.954 90.7551 96.5474 90.3525 97.2044 90.0802C97.8615 89.8079 98.5682 89.6717 99.2808 89.68C102.326 89.68 104.457 91.907 104.457 95.0972C104.493 95.7932 104.383 96.489 104.133 97.1409C103.883 97.7927 103.499 98.3864 103.005 98.8845C102.512 99.3826 101.919 99.7744 101.264 100.035C100.609 100.296 99.9061 100.42 99.2002 100.4ZM99.2808 90.5196C98.1201 90.5805 97.0266 91.0759 96.2232 91.9047C95.4197 92.7335 94.9667 93.8334 94.9564 94.9803C94.9461 96.1273 95.3794 97.2349 96.1679 98.0776C96.9564 98.9203 98.0408 99.4347 99.2002 99.5159C99.789 99.5381 100.376 99.4381 100.923 99.2224C101.47 99.0066 101.965 98.6799 102.376 98.2634C102.788 97.8469 103.105 97.3499 103.31 96.8045C103.514 96.2591 103.6 95.6775 103.562 95.0972C103.562 92.34 101.842 90.5196 99.2808 90.5196ZM102.953 84.4219H95.7882L95.6001 81.9652C95.0717 77.2903 96.7733 72.5712 100.669 67.9582C104.162 63.9107 106.177 60.8884 106.177 57.4065C106.177 53.4386 103.562 51.1233 99.0121 51.0526C96.224 51.039 93.4975 51.8619 91.194 53.4121L90.7193 53.7656L88.4805 47.9242L88.7581 47.721C91.4447 45.7768 96.1732 44.4689 100.481 44.4689C110.69 44.4689 114.308 50.9731 114.308 56.5405C114.308 61.9665 111.416 65.7842 107.314 70.5828C103.947 74.5154 102.612 77.9 102.836 81.9033L102.953 84.4219ZM96.6837 83.5382H102.057L101.994 81.9475C101.735 77.7056 103.141 74.1354 106.669 70.0173C110.636 65.36 113.448 61.6661 113.448 56.5405C113.448 51.4149 110.063 45.3526 100.517 45.3526C96.5315 45.3526 92.206 46.5103 89.5999 48.2424L91.194 52.3693C93.5632 50.9287 96.2919 50.1668 99.0748 50.1689C104.126 50.2484 107.135 52.9526 107.135 57.4065C107.135 61.1535 105.039 64.3261 101.421 68.5326C97.6867 72.9512 96.0479 77.4405 96.5494 81.8768L96.6837 83.5382ZM306.279 168.225C304.765 167.341 302.562 168.428 301.353 170.558C300.144 172.688 300.377 175.092 301.89 175.931C303.404 176.771 305.607 175.719 306.816 173.589C308.025 171.46 307.738 169.056 306.279 168.225ZM304.443 174.623C304.409 174.667 304.366 174.703 304.316 174.727C304.267 174.752 304.212 174.765 304.156 174.765C304.1 174.765 304.046 174.752 303.996 174.727C303.946 174.703 303.903 174.667 303.869 174.623C303.816 174.513 303.802 174.389 303.83 174.27C303.858 174.151 303.925 174.045 304.022 173.969C304.055 173.925 304.098 173.89 304.148 173.865C304.198 173.841 304.253 173.828 304.308 173.828C304.364 173.828 304.419 173.841 304.469 173.865C304.518 173.89 304.562 173.925 304.595 173.969C304.645 174.084 304.653 174.212 304.617 174.332C304.581 174.451 304.503 174.555 304.398 174.623H304.443ZM304.899 171.018C304.541 171.645 303.896 171.954 303.449 171.707C303.222 171.514 303.079 171.242 303.049 170.948C303.019 170.654 303.105 170.359 303.287 170.125C303.646 169.498 304.299 169.188 304.738 169.436C304.958 169.635 305.092 169.91 305.114 170.204C305.136 170.498 305.043 170.789 304.855 171.018H304.899Z" fill="black"/>
<path d="M347.474 248.98C347.761 249.298 353.035 255.104 360.012 253.398L370.481 232.737C365.447 228.951 360.154 225.514 354.639 222.45C346.579 245.427 327.772 265.753 327.772 265.753C328.35 258.45 328.368 251.115 327.826 243.81C325.614 247.495 321.888 252.391 317.473 252.939C317.473 252.939 326.429 271.497 327.324 281.218C327.679 280.255 328.104 279.319 328.596 278.416C331.022 273.811 334.612 269.9 339.017 267.063C343.422 264.225 348.494 262.556 353.743 262.218L347.474 248.962" fill="#FC6352"/>
<path d="M327.073 281.589C326.536 281.527 326.876 281.253 326.876 281.253C325.981 271.727 317.159 253.31 317.07 253.124L316.801 252.576L317.41 252.497C321.584 251.975 325.166 247.362 327.44 243.58L328.157 242.387L328.264 243.766C328.783 250.66 328.798 257.583 328.309 264.48C332.088 260.167 347.259 242.122 354.208 222.3L354.388 221.814L354.844 222.053C360.379 225.131 365.696 228.577 370.758 232.366L371.054 232.587L360.307 253.796L360.11 253.84C355.167 255.068 351.065 252.665 348.853 250.897L354.405 262.633L353.77 262.686C338.912 263.959 331.864 273.238 328.981 278.655C328.502 279.535 328.086 280.448 327.736 281.386C327.736 281.386 327.602 281.642 327.073 281.589ZM318.118 253.31C319.524 256.27 326.079 270.463 327.548 279.539C327.718 279.159 327.933 278.726 328.184 278.24C330.614 273.679 334.163 269.791 338.507 266.932C342.851 264.073 347.852 262.334 353.053 261.873L347.026 249.192V248.997H347.474L347.805 248.706L347.859 248.767C348.575 249.545 353.393 254.467 359.698 253.027L369.907 232.887C365.113 229.321 360.094 226.06 354.88 223.122C346.82 245.719 328.291 265.876 328.103 266.08L327.208 267.025L327.297 265.753C327.823 258.924 327.874 252.068 327.449 245.233C325.211 248.697 321.96 252.47 318.127 253.274L318.118 253.31Z" fill="#020202"/>
</svg>
