<svg width="62" height="62" viewBox="0 0 62 62" fill="none" xmlns="http://www.w3.org/2000/svg">
<path d="M5.625 49.0837H56.4589C56.4589 50.0219 55.6984 50.7824 54.7602 50.7824H7.32351C6.38547 50.7824 5.625 50.0219 5.625 49.0837Z" fill="#7C83FD"/>
<path d="M56.5266 46.5978H5.47328C4.73674 46.5978 4.13965 47.1949 4.13965 47.9314C4.13965 48.668 4.73674 49.265 5.47328 49.265H56.5266C57.2631 49.265 57.8602 48.668 57.8602 47.9314C57.8602 47.1949 57.2631 46.5978 56.5266 46.5978Z" fill="white" stroke="#7C83FD"/>
<path d="M13.8207 12.1796H8.33838C7.00081 12.1796 5.9165 13.2639 5.9165 14.6014V43.5869C5.9165 44.9245 7.00081 46.0088 8.33838 46.0088H13.8207C15.1583 46.0088 16.2426 44.9245 16.2426 43.5869V14.6014C16.2426 13.2639 15.1583 12.1796 13.8207 12.1796Z" fill="white" stroke="#7C83FD" stroke-linecap="round" stroke-linejoin="round"/>
<path d="M24.3295 12.1796H18.8472C17.5096 12.1796 16.4253 13.2639 16.4253 14.6014V43.5869C16.4253 44.9245 17.5096 46.0088 18.8472 46.0088H24.3295C25.6671 46.0088 26.7514 44.9245 26.7514 43.5869V14.6014C26.7514 13.2639 25.6671 12.1796 24.3295 12.1796Z" fill="white" stroke="#7C83FD" stroke-linecap="round" stroke-linejoin="round"/>
<path d="M11.0459 34.7656C12.1283 34.7656 13.0058 33.4961 13.0058 31.93C13.0058 30.3639 12.1283 29.0943 11.0459 29.0943C9.96344 29.0943 9.08594 30.3639 9.08594 31.93C9.08594 33.4961 9.96344 34.7656 11.0459 34.7656Z" stroke="#7C83FD"/>
<path d="M21.5884 34.7656C22.6708 34.7656 23.5483 33.4961 23.5483 31.93C23.5483 30.3639 22.6708 29.0943 21.5884 29.0943C20.5059 29.0943 19.6284 30.3639 19.6284 31.93C19.6284 33.4961 20.5059 34.7656 21.5884 34.7656Z" stroke="#7C83FD"/>
<path d="M6.12549 18.6273H15.8835" stroke="#7C83FD" stroke-linecap="round" stroke-linejoin="round"/>
<path d="M6.125 20.7957H15.8831" stroke="#7C83FD" stroke-linecap="round" stroke-linejoin="round"/>
<path d="M16.7095 18.6273H26.4675" stroke="#7C83FD" stroke-linecap="round" stroke-linejoin="round"/>
<path d="M16.709 20.7957H26.4671" stroke="#7C83FD" stroke-linecap="round" stroke-linejoin="round"/>
<path d="M34.8378 12.1796H29.3555C28.0179 12.1796 26.9336 13.2639 26.9336 14.6014V43.5869C26.9336 44.9245 28.0179 46.0088 29.3555 46.0088H34.8378C36.1754 46.0088 37.2597 44.9245 37.2597 43.5869V14.6014C37.2597 13.2639 36.1754 12.1796 34.8378 12.1796Z" fill="white" stroke="#7C83FD" stroke-linecap="round" stroke-linejoin="round"/>
<path d="M32.0967 34.7656C33.1791 34.7656 34.0566 33.4961 34.0566 31.93C34.0566 30.3639 33.1791 29.0943 32.0967 29.0943C31.0142 29.0943 30.1367 30.3639 30.1367 31.93C30.1367 33.4961 31.0142 34.7656 32.0967 34.7656Z" stroke="#7C83FD"/>
<path d="M27.0176 18.6273H36.7757" stroke="#7C83FD" stroke-linecap="round" stroke-linejoin="round"/>
<path d="M27.0171 20.7957H36.7752" stroke="#7C83FD" stroke-linecap="round" stroke-linejoin="round"/>
<path d="M44.531 11.8445L38.8979 13.3539C37.606 13.7001 36.8392 15.0281 37.1854 16.3201L44.7767 44.651C45.1229 45.943 46.4509 46.7097 47.7428 46.3635L53.3759 44.8541C54.6678 44.5079 55.4346 43.1799 55.0884 41.888L47.4971 13.557C47.151 12.2651 45.823 11.4983 44.531 11.8445Z" fill="#7C83FD"/>
<path d="M47.6066 34.5716C48.6522 34.2914 49.1712 32.838 48.7659 31.3253C48.3605 29.8125 47.1843 28.8133 46.1388 29.0935C45.0932 29.3737 44.5742 30.8271 44.9795 32.3398C45.3849 33.8526 46.5611 34.8518 47.6066 34.5716Z" fill="#7C83FD" stroke="white"/>
<path d="M39.1558 20.1284L47.6269 17.8586" stroke="white" stroke-linecap="round" stroke-linejoin="round"/>
<path d="M39.7168 22.2229L48.1879 19.9531" stroke="white" stroke-linecap="round" stroke-linejoin="round"/>
</svg>
