<svg width="62" height="62" viewBox="0 0 62 62" fill="none" xmlns="http://www.w3.org/2000/svg">
<g clip-path="url(#clip0_357:107)">
<path d="M9.63574 26.2922C9.63574 23.2077 12.1362 20.7072 15.2207 20.7072H49.8423C52.9268 20.7072 55.4272 23.2077 55.4272 26.2922V47.2538C55.4272 50.3382 52.9268 52.839 49.8423 52.839H15.2207C12.1362 52.839 9.63574 50.3382 9.63574 47.2538V26.2922Z" fill="#79B4B7"/>
<path d="M7.50342 22.2987C7.50342 20.2423 9.17039 18.5753 11.2268 18.5753H49.5716C51.6278 18.5753 53.295 20.2423 53.295 22.2987V46.9836C53.295 49.0401 51.6278 50.7068 49.5716 50.7068H11.2268C9.17039 50.7068 7.50342 49.0401 7.50342 46.9836V22.2987Z" fill="white"/>
<path d="M25.2583 21.2402C25.2583 20.4061 25.9344 19.73 26.7684 19.73H34.0302C34.8642 19.73 35.5403 20.4061 35.5403 21.2402C35.5403 22.0742 34.8642 22.7503 34.0302 22.7503H26.7684C25.9344 22.7503 25.2583 22.0742 25.2583 21.2402Z" fill="#79B4B7"/>
<path fill-rule="evenodd" clip-rule="evenodd" d="M14.4287 26.8827H25.1402C26.6824 26.8827 27.9327 28.1329 27.9327 29.6752V43.9277C27.9327 45.4699 26.6824 46.7201 25.1402 46.7201H14.4287C12.8865 46.7201 11.6362 45.4699 11.6362 43.9277V29.6752C11.6362 28.1329 12.8865 26.8827 14.4287 26.8827ZM14.4287 27.8135C13.4006 27.8135 12.5671 28.647 12.5671 29.6752V43.9277C12.5671 44.9558 13.4006 45.7893 14.4287 45.7893H25.1402C26.1684 45.7893 27.0018 44.9558 27.0018 43.9277V29.6752C27.0018 28.647 26.1684 27.8135 25.1402 27.8135H14.4287Z" fill="#79B4B7"/>
<path fill-rule="evenodd" clip-rule="evenodd" d="M16.3966 39.6688C16.6502 40.26 17.1891 40.695 17.9035 40.9927C18.6756 41.3143 19.5949 41.4486 20.394 41.4486C21.193 41.4486 22.1124 41.3143 22.8844 40.9927C23.5988 40.695 24.1377 40.26 24.3914 39.6688C24.1313 39.1003 23.4964 38.656 22.6856 38.3442C21.8268 38.0139 20.9001 37.8835 20.394 37.8835C19.8879 37.8835 18.9611 38.0139 18.1023 38.3442C17.2915 38.656 16.6567 39.1003 16.3966 39.6688ZM17.7682 37.4754C18.7359 37.1032 19.7761 36.9526 20.394 36.9526C21.0119 36.9526 22.0521 37.1032 23.0198 37.4754C23.968 37.8401 24.9822 38.471 25.3314 39.5189C25.3633 39.6144 25.3633 39.7177 25.3314 39.8132C24.9922 40.831 24.155 41.4717 23.2425 41.8519C22.3286 42.2327 21.2809 42.3794 20.394 42.3794C19.5071 42.3794 18.4594 42.2327 17.5455 41.8519C16.633 41.4717 15.7958 40.831 15.4565 39.8132C15.4247 39.7177 15.4247 39.6144 15.4565 39.5189C15.8058 38.471 16.82 37.8401 17.7682 37.4754Z" fill="#79B4B7"/>
<path fill-rule="evenodd" clip-rule="evenodd" d="M18.6521 31.1209C18.4634 30.8336 18.1307 30.6727 17.7865 30.7053C17.4296 30.739 17.1239 30.9747 17.0003 31.3112C16.6992 32.1316 16.7723 32.9073 17.2628 33.4951C17.3776 33.6327 17.5057 33.7479 17.6402 33.8444C17.5821 34.0666 17.5512 34.2995 17.5512 34.5394C17.5512 36.0546 18.7795 37.2829 20.2947 37.2829C21.7917 37.2829 23.0087 36.0839 23.0376 34.5937C23.0518 34.4506 23.0718 34.1622 23.0396 33.9165C22.918 32.8367 22.397 32.0852 21.6087 31.6731C20.8937 31.2993 20.0709 31.2661 19.4214 31.3022C19.0941 31.3203 18.8872 31.2548 18.773 31.199C18.6963 31.1614 18.6605 31.1285 18.6521 31.1209ZM22.1157 34.0304C21.9381 32.4092 20.6722 32.1649 19.4731 32.2316C19.1671 32.2486 18.9072 32.2163 18.6909 32.1573C18.2287 32.0313 17.9649 31.7832 17.8742 31.632C17.6655 32.2003 17.7436 32.5985 17.9556 32.8716C17.9829 32.9067 18.0123 32.9397 18.0436 32.9707C18.2727 33.1977 18.6025 33.3195 18.9066 33.3735C18.7028 33.6159 18.5613 33.9125 18.5068 34.2385C18.4905 34.3363 18.482 34.4369 18.482 34.5394C18.482 35.5405 19.2936 36.3521 20.2947 36.3521C21.2958 36.3521 22.1074 35.5405 22.1074 34.5394C22.1195 34.4353 22.1382 34.1879 22.1157 34.0304Z" fill="#79B4B7"/>
<path fill-rule="evenodd" clip-rule="evenodd" d="M20.8066 39.4046C20.8066 39.1475 21.015 38.9391 21.2721 38.9391H22.6045C22.8616 38.9391 23.0699 39.1475 23.0699 39.4046C23.0699 39.6616 22.8616 39.87 22.6045 39.87H21.2721C21.015 39.87 20.8066 39.6616 20.8066 39.4046Z" fill="#79B4B7"/>
<path fill-rule="evenodd" clip-rule="evenodd" d="M30.645 41.2664C30.645 41.0093 30.8534 40.801 31.1105 40.801H40.6144C40.8714 40.801 41.0798 41.0093 41.0798 41.2664C41.0798 41.5234 40.8714 41.7318 40.6144 41.7318H31.1105C30.8534 41.7318 30.645 41.5234 30.645 41.2664Z" fill="#79B4B7"/>
<path fill-rule="evenodd" clip-rule="evenodd" d="M30.645 38.4287C30.645 38.1716 30.8534 37.9633 31.1105 37.9633H48.521C48.7782 37.9633 48.9865 38.1716 48.9865 38.4287C48.9865 38.6857 48.7782 38.8941 48.521 38.8941H31.1105C30.8534 38.8941 30.645 38.6857 30.645 38.4287Z" fill="#79B4B7"/>
<path fill-rule="evenodd" clip-rule="evenodd" d="M30.645 35.5862C30.645 35.3291 30.8534 35.1207 31.1105 35.1207H48.521C48.7782 35.1207 48.9865 35.3291 48.9865 35.5862C48.9865 35.8432 48.7782 36.0516 48.521 36.0516H31.1105C30.8534 36.0516 30.645 35.8432 30.645 35.5862Z" fill="#79B4B7"/>
<path fill-rule="evenodd" clip-rule="evenodd" d="M30.6445 32.7436C30.6445 32.4866 30.8529 32.2782 31.11 32.2782H48.5207C48.7774 32.2782 48.9862 32.4866 48.9862 32.7436C48.9862 33.0007 48.7774 33.2091 48.5207 33.2091H31.11C30.8529 33.2091 30.6445 33.0007 30.6445 32.7436Z" fill="#79B4B7"/>
<path d="M30.7324 28.4576C30.7324 27.9057 31.1798 27.4583 31.7317 27.4583H48.0763C48.6282 27.4583 49.0758 27.9057 49.0758 28.4576C49.0758 29.0095 48.6282 29.4569 48.0763 29.4569H31.7317C31.1798 29.4569 30.7324 29.0095 30.7324 28.4576Z" fill="#79B4B7"/>
<path fill-rule="evenodd" clip-rule="evenodd" d="M11.2269 17.6444H49.5718C52.1424 17.6444 54.2261 19.7282 54.2261 22.2986V46.9835C54.2261 49.554 52.1424 51.6377 49.5718 51.6377H11.2269C8.65649 51.6377 6.57275 49.554 6.57275 46.9835V22.2986C6.57275 19.7282 8.65649 17.6444 11.2269 17.6444ZM11.2269 18.5753C9.17055 18.5753 7.50358 20.2423 7.50358 22.2986V46.9835C7.50358 49.04 9.17055 50.7068 11.2269 50.7068H49.5718C51.628 50.7068 53.2952 49.04 53.2952 46.9835V22.2986C53.2952 20.2423 51.628 18.5753 49.5718 18.5753H11.2269Z" fill="#79B4B7"/>
<path d="M27.8901 11.023C27.8901 10.5089 28.3069 10.0921 28.821 10.0921H31.9782C32.4923 10.0921 32.909 10.5089 32.909 11.023V21.1069H27.8901V11.023Z" fill="white"/>
<path fill-rule="evenodd" clip-rule="evenodd" d="M33.8395 22.0377H26.959V11.0229C26.959 9.99472 27.7925 9.16125 28.8206 9.16125H31.9778C33.006 9.16125 33.8395 9.99472 33.8395 11.0229V22.0377ZM28.8206 10.0921C28.3066 10.0921 27.8898 10.5088 27.8898 11.0229V21.1069H32.9087V11.0229C32.9087 10.5088 32.492 10.0921 31.9778 10.0921H28.8206Z" fill="#79B4B7"/>
<path d="M31.6874 12.5794C31.6874 13.2907 31.1107 13.8674 30.3994 13.8674C29.688 13.8674 29.1113 13.2907 29.1113 12.5794C29.1113 11.868 29.688 11.2914 30.3994 11.2914C31.1107 11.2914 31.6874 11.868 31.6874 12.5794Z" fill="#79B4B7"/>
</g>
<defs>
<clipPath id="clip0_357:107">
<rect width="62" height="62" fill="white"/>
</clipPath>
</defs>
</svg>
